<svg width="19" height="13" viewBox="0 0 19 13" fill="none" xmlns="http://www.w3.org/2000/svg">
<path d="M0.791748 12.8333V10.6166C0.791748 10.168 0.907199 9.75569 1.1381 9.37965C1.369 9.0036 1.67578 8.71663 2.05841 8.51871C2.87647 8.10968 3.70772 7.80291 4.55216 7.5984C5.39661 7.39388 6.25425 7.29163 7.12508 7.29163C7.99591 7.29163 8.85355 7.39388 9.698 7.5984C10.5424 7.80291 11.3737 8.10968 12.1917 8.51871C12.5744 8.71663 12.8812 9.0036 13.1121 9.37965C13.343 9.75569 13.4584 10.168 13.4584 10.6166V12.8333H0.791748ZM15.0417 12.8333V10.4583C15.0417 9.87774 14.8801 9.32027 14.5569 8.7859C14.2336 8.25152 13.7751 7.79302 13.1813 7.41038C13.8542 7.48954 14.4876 7.62479 15.0813 7.8161C15.6751 8.00742 16.2292 8.24163 16.7438 8.51871C17.2188 8.7826 17.5817 9.07617 17.8324 9.39944C18.0831 9.7227 18.2084 10.0757 18.2084 10.4583V12.8333H15.0417ZM7.12508 6.49996C6.25425 6.49996 5.50876 6.18989 4.88862 5.56975C4.26848 4.94961 3.95841 4.20413 3.95841 3.33329C3.95841 2.46246 4.26848 1.71697 4.88862 1.09683C5.50876 0.476695 6.25425 0.166626 7.12508 0.166626C7.99591 0.166626 8.7414 0.476695 9.36154 1.09683C9.98168 1.71697 10.2917 2.46246 10.2917 3.33329C10.2917 4.20413 9.98168 4.94961 9.36154 5.56975C8.7414 6.18989 7.99591 6.49996 7.12508 6.49996ZM15.0417 3.33329C15.0417 4.20413 14.7317 4.94961 14.1115 5.56975C13.4914 6.18989 12.7459 6.49996 11.8751 6.49996C11.7299 6.49996 11.5452 6.48347 11.3209 6.45048C11.0966 6.41749 10.9119 6.38121 10.7667 6.34163C11.123 5.9194 11.3968 5.451 11.5881 4.93642C11.7794 4.42183 11.8751 3.88746 11.8751 3.33329C11.8751 2.77913 11.7794 2.24475 11.5881 1.73017C11.3968 1.21558 11.123 0.747182 10.7667 0.324959C10.9515 0.258987 11.1362 0.216105 11.3209 0.196313C11.5056 0.176522 11.6904 0.166626 11.8751 0.166626C12.7459 0.166626 13.4914 0.476695 14.1115 1.09683C14.7317 1.71697 15.0417 2.46246 15.0417 3.33329ZM2.37508 11.25H11.8751V10.6166C11.8751 10.4715 11.8388 10.3395 11.7662 10.2208C11.6937 10.102 11.598 10.0097 11.4792 9.94371C10.7667 9.58746 10.0477 9.32027 9.32196 9.14215C8.59626 8.96402 7.86397 8.87496 7.12508 8.87496C6.38619 8.87496 5.6539 8.96402 4.92821 9.14215C4.20251 9.32027 3.48341 9.58746 2.77091 9.94371C2.65216 10.0097 2.5565 10.102 2.48394 10.2208C2.41137 10.3395 2.37508 10.4715 2.37508 10.6166V11.25ZM7.12508 4.91663C7.5605 4.91663 7.93324 4.76159 8.24331 4.45152C8.55338 4.14145 8.70841 3.76871 8.70841 3.33329C8.70841 2.89788 8.55338 2.52513 8.24331 2.21506C7.93324 1.90499 7.5605 1.74996 7.12508 1.74996C6.68966 1.74996 6.31692 1.90499 6.00685 2.21506C5.69678 2.52513 5.54175 2.89788 5.54175 3.33329C5.54175 3.76871 5.69678 4.14145 6.00685 4.45152C6.31692 4.76159 6.68966 4.91663 7.12508 4.91663Z" fill="white"/>
</svg>
