<svg width="92" height="38" viewBox="0 0 92 38" fill="none" xmlns="http://www.w3.org/2000/svg">
<g opacity="0.75">
<path fill-rule="evenodd" clip-rule="evenodd" d="M36 19C36 28.9411 27.9411 37 18 37C8.05888 37 0 28.9411 0 19C0 9.05888 8.05888 1 18 1C27.9411 1 36 9.05888 36 19ZM19.9187 20.6583V20.6612V20.6641C24.303 20.4673 27.576 19.7033 27.576 18.7889C27.576 17.8744 24.3059 17.1104 19.9187 16.9136V19.9001C19.7914 19.9117 19.1084 19.9696 17.7425 19.9696C16.6052 19.9696 15.7805 19.9204 15.494 19.9001V16.9107C11.1011 17.1046 7.81938 17.8715 7.81938 18.786C7.81938 19.7033 11.0982 20.4673 15.494 20.6612V20.6583C15.7776 20.6728 16.5792 20.7046 17.7223 20.7046C19.1519 20.7046 19.7943 20.667 19.9187 20.6583ZM19.9187 13.93V16.604L19.9216 16.6069C24.8875 16.8355 28.6207 17.8223 28.6207 19.0001C28.6207 20.1808 24.8875 21.1648 19.9216 21.3934V29.9651H15.4969V21.3934C10.5252 21.1619 6.78337 20.1779 6.78337 18.9972C6.78337 17.8165 10.5223 16.8326 15.4969 16.604V13.93H9.37629V9.85254H26.0393V13.93H19.9187Z" fill="url(#paint0_linear_405_552)"/>
<path d="M51.04 15.21C50.2373 15.21 49.5303 15.0467 48.919 14.72C48.3123 14.3933 47.8363 13.9337 47.491 13.341C47.1503 12.7483 46.98 12.053 46.98 11.255V4.934L48.688 4.92V11.213C48.688 11.591 48.751 11.9293 48.877 12.228C49.0077 12.5267 49.1827 12.781 49.402 12.991C49.6213 13.1963 49.8733 13.3527 50.158 13.46C50.4427 13.5673 50.7367 13.621 51.04 13.621C51.3527 13.621 51.649 13.5673 51.929 13.46C52.2137 13.348 52.4657 13.1893 52.685 12.984C52.9043 12.774 53.077 12.5197 53.203 12.221C53.329 11.9223 53.392 11.5863 53.392 11.213V4.92H55.1V11.255C55.1 12.053 54.9273 12.7483 54.582 13.341C54.2413 13.9337 53.7653 14.3933 53.154 14.72C52.5473 15.0467 51.8427 15.21 51.04 15.21ZM60.3633 15.21C59.626 15.21 58.961 15.0817 58.3683 14.825C57.7803 14.5683 57.295 14.202 56.9123 13.726C56.5343 13.2453 56.294 12.676 56.1913 12.018L57.9413 11.752C58.0907 12.3493 58.3963 12.8113 58.8583 13.138C59.325 13.4647 59.8617 13.628 60.4683 13.628C60.8277 13.628 61.166 13.572 61.4833 13.46C61.8007 13.348 62.0573 13.1847 62.2533 12.97C62.454 12.7553 62.5543 12.4917 62.5543 12.179C62.5543 12.039 62.531 11.9107 62.4843 11.794C62.4377 11.6727 62.3677 11.5653 62.2743 11.472C62.1857 11.3787 62.069 11.2947 61.9243 11.22C61.7843 11.1407 61.621 11.073 61.4343 11.017L58.8303 10.247C58.6063 10.1817 58.3637 10.0953 58.1023 9.988C57.8457 9.876 57.6007 9.72433 57.3673 9.533C57.1387 9.337 56.9497 9.08967 56.8003 8.791C56.6557 8.48767 56.5833 8.11433 56.5833 7.671C56.5833 7.02233 56.7467 6.47867 57.0733 6.04C57.4047 5.59667 57.848 5.26533 58.4033 5.046C58.9633 4.82667 59.584 4.71933 60.2653 4.724C60.956 4.72867 61.572 4.84767 62.1133 5.081C62.6547 5.30967 63.1073 5.64333 63.4713 6.082C63.8353 6.52067 64.092 7.05033 64.2413 7.671L62.4283 7.986C62.3537 7.63133 62.209 7.33033 61.9943 7.083C61.7843 6.831 61.5253 6.63967 61.2173 6.509C60.914 6.37833 60.5897 6.30833 60.2443 6.299C59.9083 6.29433 59.5957 6.34567 59.3063 6.453C59.0217 6.55567 58.7907 6.705 58.6133 6.901C58.4407 7.097 58.3543 7.32567 58.3543 7.587C58.3543 7.83433 58.429 8.03733 58.5783 8.196C58.7277 8.35 58.912 8.47367 59.1313 8.567C59.3553 8.65567 59.5817 8.73033 59.8103 8.791L61.6163 9.295C61.8637 9.36033 62.1413 9.449 62.4493 9.561C62.7573 9.673 63.0537 9.82933 63.3383 10.03C63.623 10.2307 63.8563 10.4943 64.0383 10.821C64.225 11.1477 64.3183 11.563 64.3183 12.067C64.3183 12.5897 64.2087 13.0493 63.9893 13.446C63.7747 13.838 63.483 14.1647 63.1143 14.426C62.7457 14.6873 62.3233 14.8833 61.8473 15.014C61.376 15.1447 60.8813 15.21 60.3633 15.21ZM65.8335 15V4.92H69.0465C69.1305 4.92 69.2962 4.92233 69.5435 4.927C69.7955 4.93167 70.0382 4.948 70.2715 4.976C71.0695 5.07867 71.7438 5.36333 72.2945 5.83C72.8498 6.292 73.2698 6.88233 73.5545 7.601C73.8392 8.31967 73.9815 9.106 73.9815 9.96C73.9815 10.814 73.8392 11.6003 73.5545 12.319C73.2698 13.0377 72.8498 13.6303 72.2945 14.097C71.7438 14.559 71.0695 14.8413 70.2715 14.944C70.0428 14.972 69.8025 14.9883 69.5505 14.993C69.2985 14.9977 69.1305 15 69.0465 15H65.8335ZM67.5485 13.411H69.0465C69.1865 13.411 69.3638 13.4063 69.5785 13.397C69.7978 13.3877 69.9915 13.3667 70.1595 13.334C70.6355 13.2453 71.0228 13.033 71.3215 12.697C71.6202 12.361 71.8395 11.9527 71.9795 11.472C72.1242 10.9913 72.1965 10.4873 72.1965 9.96C72.1965 9.414 72.1242 8.90067 71.9795 8.42C71.8348 7.93933 71.6108 7.53567 71.3075 7.209C71.0088 6.88233 70.6262 6.67467 70.1595 6.586C69.9915 6.54867 69.7978 6.52767 69.5785 6.523C69.3638 6.51367 69.1865 6.509 69.0465 6.509H67.5485V13.411ZM77.7848 15V6.502H74.5228V4.92H82.7338V6.502H79.4718V15H77.7848ZM49.402 34V25.502H46.14V23.92H54.351V25.502H51.089V34H49.402ZM55.4702 34V23.92H59.6352C59.7332 23.92 59.8592 23.9247 60.0132 23.934C60.1672 23.9387 60.3096 23.9527 60.4402 23.976C61.0236 24.0647 61.5042 24.2583 61.8822 24.557C62.2649 24.8557 62.5472 25.2337 62.7292 25.691C62.9159 26.1437 63.0092 26.6477 63.0092 27.203C63.0092 28.0243 62.8016 28.7313 62.3862 29.324C61.9709 29.912 61.3339 30.276 60.4752 30.416L59.7542 30.479H57.1572V34H55.4702ZM61.2592 34L59.2712 29.898L60.9862 29.52L63.1702 34H61.2592ZM57.1572 28.904H59.5652C59.6586 28.904 59.7636 28.8993 59.8802 28.89C59.9969 28.8807 60.1042 28.862 60.2022 28.834C60.4822 28.764 60.7016 28.6403 60.8602 28.463C61.0236 28.2857 61.1379 28.085 61.2032 27.861C61.2732 27.637 61.3082 27.4177 61.3082 27.203C61.3082 26.9883 61.2732 26.769 61.2032 26.545C61.1379 26.3163 61.0236 26.1133 60.8602 25.936C60.7016 25.7587 60.4822 25.635 60.2022 25.565C60.1042 25.537 59.9969 25.5207 59.8802 25.516C59.7636 25.5067 59.6586 25.502 59.5652 25.502H57.1572V28.904ZM68.62 34.21C67.612 34.21 66.7486 33.9907 66.03 33.552C65.3113 33.1087 64.7583 32.4927 64.371 31.704C63.9883 30.9153 63.797 30.0007 63.797 28.96C63.797 27.9193 63.9883 27.0047 64.371 26.216C64.7583 25.4273 65.3113 24.8137 66.03 24.375C66.7486 23.9317 67.612 23.71 68.62 23.71C69.782 23.71 70.7503 24.0017 71.525 24.585C72.2996 25.1637 72.8433 25.9453 73.156 26.93L71.455 27.399C71.259 26.741 70.9253 26.2277 70.454 25.859C69.9826 25.4857 69.3713 25.299 68.62 25.299C67.9433 25.299 67.3786 25.4507 66.926 25.754C66.478 26.0573 66.1396 26.4843 65.911 27.035C65.687 27.581 65.5726 28.2227 65.568 28.96C65.568 29.6973 65.68 30.3413 65.904 30.892C66.1326 31.438 66.4733 31.8627 66.926 32.166C67.3786 32.4693 67.9433 32.621 68.62 32.621C69.3713 32.621 69.9826 32.4343 70.454 32.061C70.9253 31.6877 71.259 31.1743 71.455 30.521L73.156 30.99C72.8433 31.9747 72.2996 32.7587 71.525 33.342C70.7503 33.9207 69.782 34.21 68.62 34.21ZM74.4129 33.986V32.516L78.7249 28.673C79.0609 28.3743 79.2942 28.092 79.4249 27.826C79.5556 27.56 79.6209 27.3033 79.6209 27.056C79.6209 26.72 79.5486 26.4213 79.4039 26.16C79.2592 25.894 79.0586 25.684 78.8019 25.53C78.5499 25.376 78.2582 25.299 77.9269 25.299C77.5769 25.299 77.2666 25.3807 76.9959 25.544C76.7299 25.7027 76.5222 25.915 76.3729 26.181C76.2236 26.447 76.1536 26.734 76.1629 27.042H74.4269C74.4269 26.37 74.5762 25.7843 74.8749 25.285C75.1782 24.7857 75.5936 24.3983 76.1209 24.123C76.6529 23.8477 77.2666 23.71 77.9619 23.71C78.6059 23.71 79.1846 23.8547 79.6979 24.144C80.2112 24.4287 80.6149 24.8253 80.9089 25.334C81.2029 25.838 81.3499 26.419 81.3499 27.077C81.3499 27.5577 81.2846 27.9613 81.1539 28.288C81.0232 28.6147 80.8272 28.9157 80.5659 29.191C80.3092 29.4663 79.9896 29.772 79.6069 30.108L76.5479 32.817L76.3939 32.397H81.3499V33.986H74.4129ZM86.6587 34.21C85.9447 34.21 85.3147 34.0583 84.7687 33.755C84.2227 33.447 83.7957 33.02 83.4877 32.474C83.1844 31.928 83.0327 31.298 83.0327 30.584V27.336C83.0327 26.622 83.1844 25.992 83.4877 25.446C83.7957 24.9 84.2227 24.4753 84.7687 24.172C85.3147 23.864 85.9447 23.71 86.6587 23.71C87.3727 23.71 88.0004 23.864 88.5417 24.172C89.0877 24.4753 89.5147 24.9 89.8227 25.446C90.1307 25.992 90.2847 26.622 90.2847 27.336V30.584C90.2847 31.298 90.1307 31.928 89.8227 32.474C89.5147 33.02 89.0877 33.447 88.5417 33.755C88.0004 34.0583 87.3727 34.21 86.6587 34.21ZM86.6587 32.607C87.0134 32.607 87.3354 32.523 87.6247 32.355C87.9141 32.1823 88.1427 31.9537 88.3107 31.669C88.4787 31.3797 88.5627 31.0577 88.5627 30.703V27.21C88.5627 26.8507 88.4787 26.5287 88.3107 26.244C88.1427 25.9547 87.9141 25.726 87.6247 25.558C87.3354 25.3853 87.0134 25.299 86.6587 25.299C86.3041 25.299 85.9821 25.3853 85.6927 25.558C85.4034 25.726 85.1747 25.9547 85.0067 26.244C84.8387 26.5287 84.7547 26.8507 84.7547 27.21V30.703C84.7547 31.0577 84.8387 31.3797 85.0067 31.669C85.1747 31.9537 85.4034 32.1823 85.6927 32.355C85.9821 32.523 86.3041 32.607 86.6587 32.607Z" fill="url(#paint1_linear_405_552)"/>
</g>
<defs>
<linearGradient id="paint0_linear_405_552" x1="18" y1="1" x2="18" y2="37" gradientUnits="userSpaceOnUse">
<stop stop-color="white"/>
<stop offset="1" stop-color="#999999"/>
</linearGradient>
<linearGradient id="paint1_linear_405_552" x1="69" y1="0" x2="69" y2="38" gradientUnits="userSpaceOnUse">
<stop stop-color="white"/>
<stop offset="1" stop-color="#999999"/>
</linearGradient>
</defs>
</svg>
