<svg width="124" height="35" viewBox="0 0 124 35" fill="none" xmlns="http://www.w3.org/2000/svg">
<g opacity="0.75">
<path d="M50.301 13.9253V4.86789H56.2072V6.10699H51.6156V8.28957H53.9617C54.0456 8.28957 54.1525 8.29377 54.2825 8.30215C54.4167 8.30635 54.5425 8.31683 54.6599 8.3336C55.1505 8.39231 55.5635 8.55165 55.899 8.81163C56.2386 9.07161 56.4944 9.40078 56.6663 9.79914C56.8425 10.1975 56.9305 10.6336 56.9305 11.1074C56.9305 11.5813 56.8445 12.0174 56.6726 12.4157C56.5007 12.8141 56.2449 13.1433 55.9053 13.4032C55.5698 13.6632 55.1547 13.8226 54.6599 13.8813C54.5425 13.898 54.4188 13.9106 54.2888 13.919C54.1588 13.9232 54.0498 13.9253 53.9617 13.9253H50.301ZM51.6156 12.6862H53.9114C53.9952 12.6862 54.0875 12.682 54.1881 12.6736C54.293 12.6652 54.3915 12.6526 54.4838 12.6359C54.8905 12.552 55.1756 12.3591 55.3392 12.0572C55.5069 11.7553 55.5908 11.4387 55.5908 11.1074C55.5908 10.772 55.5069 10.4554 55.3392 10.1577C55.1756 9.85575 54.8905 9.66286 54.4838 9.579C54.3915 9.55803 54.293 9.54545 54.1881 9.54126C54.0875 9.53287 53.9952 9.52868 53.9114 9.52868H51.6156V12.6862ZM60.1063 14.114C59.6031 14.114 59.1817 14.0217 58.842 13.8372C58.5024 13.6485 58.2445 13.4011 58.0684 13.095C57.8965 12.7847 57.8105 12.4451 57.8105 12.0761C57.8105 11.7322 57.8713 11.4303 57.9929 11.1703C58.1145 10.9104 58.2948 10.6902 58.5338 10.5099C58.7728 10.3254 59.0664 10.1765 59.4144 10.0633C59.7163 9.97526 60.0581 9.89768 60.4397 9.83059C60.8212 9.7635 61.2217 9.7006 61.641 9.64189C62.0645 9.58319 62.4839 9.52448 62.899 9.46578L62.421 9.72995C62.4294 9.19741 62.3161 8.80325 62.0813 8.54746C61.8507 8.28748 61.4523 8.15749 60.8862 8.15749C60.5298 8.15749 60.2027 8.24135 59.905 8.40908C59.6073 8.57262 59.3997 8.84518 59.2823 9.22676L58.0558 8.84937C58.2235 8.26651 58.5422 7.80316 59.0119 7.45931C59.4857 7.11547 60.1147 6.94354 60.8988 6.94354C61.5068 6.94354 62.0352 7.04837 62.4839 7.25804C62.9367 7.46351 63.268 7.79058 63.4777 8.23926C63.5867 8.4615 63.6538 8.69632 63.6789 8.94372C63.7041 9.19112 63.7167 9.45739 63.7167 9.74253V13.9253H62.5531V12.3717L62.7795 12.573C62.4985 13.0929 62.14 13.4808 61.7039 13.7366C61.272 13.9882 60.7395 14.114 60.1063 14.114ZM60.339 13.0384C60.7122 13.0384 61.033 12.9734 61.3014 12.8434C61.5697 12.7093 61.7857 12.5394 61.9492 12.334C62.1128 12.1285 62.2197 11.9146 62.27 11.6924C62.3413 11.4911 62.3811 11.2647 62.3895 11.0131C62.4021 10.7615 62.4084 10.5602 62.4084 10.4093L62.8361 10.5665C62.421 10.6294 62.0436 10.686 61.7039 10.7363C61.3643 10.7867 61.0561 10.837 60.7793 10.8873C60.5068 10.9334 60.2635 10.99 60.0497 11.0571C59.8694 11.12 59.7079 11.1955 59.5654 11.2835C59.427 11.3716 59.3159 11.4785 59.232 11.6043C59.1523 11.7301 59.1125 11.8832 59.1125 12.0635C59.1125 12.2396 59.1565 12.4031 59.2446 12.5541C59.3326 12.7009 59.4668 12.8183 59.6471 12.9063C59.8274 12.9944 60.0581 13.0384 60.339 13.0384ZM65.3437 13.9253V7.13224H66.6583V9.90607H69.973V7.13224H71.2876V13.9253H69.973V11.1452H66.6583V13.9253H65.3437ZM73.0463 13.9253L73.0526 7.13224H74.3861V10.403L77.053 7.13224H78.7261L75.9082 10.5288L79.0154 13.9253H77.2291L74.3861 10.6546V13.9253H73.0463ZM82.4767 14.114C81.7974 14.114 81.2082 13.9609 80.7092 13.6548C80.2102 13.3487 79.8245 12.9273 79.5519 12.3906C79.2835 11.8496 79.1494 11.2269 79.1494 10.5225C79.1494 9.81382 79.2877 9.19112 79.5645 8.65439C79.8412 8.11346 80.2291 7.69413 80.7281 7.39641C81.2271 7.0945 81.81 6.94354 82.4767 6.94354C83.156 6.94354 83.7452 7.0966 84.2441 7.4027C84.7431 7.70881 85.1289 8.13023 85.4015 8.66697C85.674 9.2037 85.8103 9.8222 85.8103 10.5225C85.8103 11.2311 85.6719 11.8559 85.3952 12.3969C85.1226 12.9336 84.7369 13.355 84.2379 13.6611C83.7389 13.963 83.1518 14.114 82.4767 14.114ZM82.4767 12.8749C83.1266 12.8749 83.611 12.6568 83.9297 12.2207C84.2525 11.7804 84.414 11.2144 84.414 10.5225C84.414 9.81382 84.2504 9.24773 83.9234 8.82421C83.6005 8.3965 83.1183 8.18265 82.4767 8.18265C82.0364 8.18265 81.6737 8.28328 81.3885 8.48456C81.1034 8.68164 80.8916 8.9563 80.7533 9.30853C80.6149 9.65657 80.5457 10.0612 80.5457 10.5225C80.5457 11.2353 80.7092 11.8056 81.0363 12.2333C81.3634 12.661 81.8435 12.8749 82.4767 12.8749ZM87.1862 13.9253V7.13224H90.1739C90.371 7.13224 90.5681 7.14482 90.7652 7.16998C90.9622 7.19094 91.1363 7.22239 91.2872 7.26433C91.6311 7.36077 91.9246 7.55366 92.1678 7.84299C92.411 8.12813 92.5326 8.50972 92.5326 8.98775C92.5326 9.26031 92.4907 9.49094 92.4068 9.67963C92.323 9.86414 92.2076 10.0235 92.0609 10.1577C91.9938 10.2164 91.9225 10.2688 91.847 10.3149C91.7715 10.361 91.6961 10.3967 91.6206 10.4218C91.7757 10.447 91.9288 10.5015 92.0797 10.5854C92.3104 10.707 92.4991 10.8831 92.6458 11.1137C92.7968 11.3402 92.8723 11.6442 92.8723 12.0258C92.8723 12.4828 92.7611 12.8665 92.5389 13.1768C92.3167 13.4829 92.0022 13.6926 91.5954 13.8058C91.4361 13.8519 91.2558 13.8834 91.0545 13.9001C90.8574 13.9169 90.6603 13.9253 90.4633 13.9253H87.1862ZM88.5197 12.8875H90.3815C90.4695 12.8875 90.5702 12.8791 90.6834 12.8623C90.7966 12.8455 90.8973 12.8225 90.9853 12.7931C91.174 12.7344 91.3082 12.6275 91.3879 12.4723C91.4717 12.3172 91.5137 12.1516 91.5137 11.9754C91.5137 11.7364 91.4508 11.5456 91.325 11.4031C91.1992 11.2563 91.0398 11.1619 90.8469 11.12C90.7631 11.0907 90.6708 11.0739 90.5702 11.0697C90.4695 11.0655 90.3836 11.0634 90.3123 11.0634H88.5197V12.8875ZM88.5197 10.0067H89.9915C90.1131 10.0067 90.2368 10.0004 90.3626 9.98784C90.4884 9.97106 90.5974 9.94381 90.6897 9.90607C90.8532 9.84317 90.9748 9.73834 91.0545 9.59158C91.1342 9.44062 91.174 9.27708 91.174 9.10097C91.174 8.90808 91.13 8.73615 91.0419 8.5852C90.9539 8.43424 90.8218 8.32941 90.6457 8.2707C90.5241 8.22877 90.3836 8.20571 90.2242 8.20152C90.0691 8.19313 89.9705 8.18894 89.9286 8.18894H88.5197V10.0067ZM97.0394 14.114C96.3433 14.114 95.7521 13.9588 95.2657 13.6485C94.7792 13.3382 94.406 12.9126 94.1461 12.3717C93.8903 11.8308 93.7603 11.2165 93.7561 10.5288C93.7603 9.82849 93.8945 9.20999 94.1586 8.67326C94.4228 8.13233 94.8002 7.70881 95.2908 7.4027C95.7814 7.0966 96.3706 6.94354 97.0583 6.94354C97.8005 6.94354 98.4337 7.12805 98.9578 7.49705C99.4862 7.86606 99.8342 8.37134 100.002 9.01291L98.6936 9.3903C98.5636 9.00872 98.3498 8.71309 98.0521 8.50343C97.7585 8.28957 97.421 8.18265 97.0394 8.18265C96.6075 8.18265 96.2532 8.28538 95.9764 8.49085C95.6997 8.69213 95.4942 8.96888 95.36 9.32111C95.2258 9.67334 95.1566 10.0759 95.1524 10.5288C95.1566 11.229 95.316 11.7951 95.6305 12.227C95.9492 12.6589 96.4188 12.8749 97.0394 12.8749C97.4629 12.8749 97.8047 12.7784 98.0646 12.5856C98.3288 12.3885 98.5301 12.1075 98.6685 11.7427L100.002 12.0572C99.7797 12.7197 99.4128 13.2292 98.9012 13.5856C98.3896 13.9379 97.769 14.114 97.0394 14.114ZM101.277 13.9253L101.283 7.13224H102.617V10.403L105.284 7.13224H106.957L104.139 10.5288L107.246 13.9253H105.46L102.617 10.6546V13.9253H101.277ZM109.799 14.114C109.295 14.114 108.874 14.0217 108.534 13.8372C108.195 13.6485 107.937 13.4011 107.761 13.095C107.589 12.7847 107.503 12.4451 107.503 12.0761C107.503 11.7322 107.564 11.4303 107.685 11.1703C107.807 10.9104 107.987 10.6902 108.226 10.5099C108.465 10.3254 108.759 10.1765 109.107 10.0633C109.409 9.97526 109.75 9.89768 110.132 9.83059C110.514 9.7635 110.914 9.7006 111.333 9.64189C111.757 9.58319 112.176 9.52448 112.591 9.46578L112.113 9.72995C112.122 9.19741 112.009 8.80325 111.774 8.54746C111.543 8.28748 111.145 8.15749 110.579 8.15749C110.222 8.15749 109.895 8.24135 109.597 8.40908C109.3 8.57262 109.092 8.84518 108.975 9.22676L107.748 8.84937C107.916 8.26651 108.235 7.80316 108.704 7.45931C109.178 7.11547 109.807 6.94354 110.591 6.94354C111.199 6.94354 111.728 7.04837 112.176 7.25804C112.629 7.46351 112.96 7.79058 113.17 8.23926C113.279 8.4615 113.346 8.69632 113.371 8.94372C113.396 9.19112 113.409 9.45739 113.409 9.74253V13.9253H112.245V12.3717L112.472 12.573C112.191 13.0929 111.832 13.4808 111.396 13.7366C110.964 13.9882 110.432 14.114 109.799 14.114ZM110.031 13.0384C110.405 13.0384 110.725 12.9734 110.994 12.8434C111.262 12.7093 111.478 12.5394 111.642 12.334C111.805 12.1285 111.912 11.9146 111.962 11.6924C112.034 11.4911 112.074 11.2647 112.082 11.0131C112.094 10.7615 112.101 10.5602 112.101 10.4093L112.528 10.5665C112.113 10.6294 111.736 10.686 111.396 10.7363C111.057 10.7867 110.748 10.837 110.472 10.8873C110.199 10.9334 109.956 10.99 109.742 11.0571C109.562 11.12 109.4 11.1955 109.258 11.2835C109.119 11.3716 109.008 11.4785 108.924 11.6043C108.845 11.7301 108.805 11.8832 108.805 12.0635C108.805 12.2396 108.849 12.4031 108.937 12.5541C109.025 12.7009 109.159 12.8183 109.34 12.9063C109.52 12.9944 109.75 13.0384 110.031 13.0384ZM119.175 13.9253V11.5666H117.829C117.669 11.5666 117.479 11.5603 117.256 11.5477C117.038 11.5351 116.833 11.5121 116.64 11.4785C116.133 11.3863 115.709 11.1661 115.369 10.8181C115.03 10.4659 114.86 9.98155 114.86 9.36514C114.86 8.7697 115.019 8.29167 115.338 7.93105C115.661 7.56624 116.07 7.33142 116.565 7.22659C116.778 7.17627 116.996 7.14901 117.219 7.14482C117.445 7.13643 117.636 7.13224 117.791 7.13224H120.489L120.496 13.9253H119.175ZM114.665 13.9253L116.382 11.2395H117.772L116.068 13.9253H114.665ZM117.716 10.5099H119.175V8.18894H117.716C117.623 8.18894 117.51 8.19313 117.376 8.20152C117.242 8.2099 117.112 8.23297 116.986 8.2707C116.856 8.30844 116.73 8.37554 116.609 8.47198C116.491 8.56842 116.395 8.69213 116.319 8.84308C116.244 8.98985 116.206 9.15967 116.206 9.35256C116.206 9.64189 116.288 9.88091 116.451 10.0696C116.615 10.2541 116.81 10.3757 117.036 10.4344C117.158 10.468 117.279 10.4889 117.401 10.4973C117.523 10.5057 117.628 10.5099 117.716 10.5099ZM50.2947 30.9253L50.301 24.1322H51.6344V27.403L54.3013 24.1322H55.9744L53.1566 27.5288L56.2638 30.9253H54.4775L51.6344 27.6546V30.9253H50.2947ZM58.8164 31.114C58.3132 31.114 57.8918 31.0217 57.5521 30.8372C57.2125 30.6485 56.9546 30.4011 56.7785 30.095C56.6065 29.7847 56.5206 29.4451 56.5206 29.0761C56.5206 28.7322 56.5814 28.4303 56.703 28.1703C56.8246 27.9104 57.0049 27.6902 57.2439 27.5099C57.4829 27.3254 57.7765 27.1765 58.1245 27.0633C58.4264 26.9753 58.7682 26.8977 59.1497 26.8306C59.5313 26.7635 59.9318 26.7006 60.3511 26.6419C60.7746 26.5832 61.194 26.5245 61.6091 26.4658L61.1311 26.73C61.1394 26.1974 61.0262 25.8032 60.7914 25.5475C60.5608 25.2875 60.1624 25.1575 59.5963 25.1575C59.2399 25.1575 58.9128 25.2414 58.6151 25.4091C58.3174 25.5726 58.1098 25.8452 57.9924 26.2268L56.7659 25.8494C56.9336 25.2665 57.2523 24.8032 57.722 24.4593C58.1958 24.1155 58.8248 23.9435 59.6089 23.9435C60.2169 23.9435 60.7453 24.0484 61.194 24.258C61.6468 24.4635 61.9781 24.7906 62.1878 25.2393C62.2968 25.4615 62.3639 25.6963 62.389 25.9437C62.4142 26.1911 62.4268 26.4574 62.4268 26.7425V30.9253H61.2631V29.3717L61.4896 29.573C61.2086 30.0929 60.8501 30.4808 60.414 30.7366C59.9821 30.9882 59.4496 31.114 58.8164 31.114ZM59.0491 30.0384C59.4223 30.0384 59.7431 29.9734 60.0115 29.8434C60.2798 29.7093 60.4958 29.5394 60.6593 29.334C60.8229 29.1285 60.9298 28.9146 60.9801 28.6924C61.0514 28.4911 61.0912 28.2647 61.0996 28.0131C61.1122 27.7615 61.1185 27.5602 61.1185 27.4093L61.5462 27.5665C61.1311 27.6294 60.7537 27.686 60.414 27.7363C60.0744 27.7867 59.7662 27.837 59.4894 27.8873C59.2168 27.9334 58.9736 27.99 58.7598 28.0571C58.5795 28.12 58.418 28.1955 58.2755 28.2835C58.1371 28.3716 58.026 28.4785 57.9421 28.6043C57.8624 28.7301 57.8226 28.8832 57.8226 29.0635C57.8226 29.2396 57.8666 29.4031 57.9547 29.5541C58.0427 29.7009 58.1769 29.8183 58.3572 29.9063C58.5375 29.9944 58.7682 30.0384 59.0491 30.0384ZM67.249 31.114C66.5991 31.114 66.054 30.9567 65.6137 30.6422C65.1734 30.3236 64.84 29.8938 64.6136 29.3528C64.3871 28.8119 64.2739 28.2018 64.2739 27.5225C64.2739 26.8432 64.385 26.2331 64.6073 25.6921C64.8337 25.1512 65.165 24.7256 65.6011 24.4153C66.0414 24.1008 66.5823 23.9435 67.2239 23.9435C67.8612 23.9435 68.4106 24.1008 68.8718 24.4153C69.3373 24.7256 69.6958 25.1512 69.9474 25.6921C70.199 26.2289 70.3248 26.839 70.3248 27.5225C70.3248 28.2018 70.199 28.814 69.9474 29.3591C69.7 29.9 69.3457 30.3278 68.8844 30.6422C68.4273 30.9567 67.8822 31.114 67.249 31.114ZM64.0538 33.9444V24.1322H65.2237V29.0195H65.3747V33.9444H64.0538ZM67.0666 29.9252C67.486 29.9252 67.8319 29.8183 68.1045 29.6044C68.3812 29.3906 68.5867 29.1033 68.7209 28.7427C68.8592 28.3779 68.9284 27.9712 68.9284 27.5225C68.9284 27.078 68.8592 26.6754 68.7209 26.3148C68.5867 25.9542 68.3791 25.667 68.0982 25.4531C67.8172 25.2393 67.4587 25.1323 67.0226 25.1323C66.6117 25.1323 66.272 25.233 66.0036 25.4342C65.7395 25.6355 65.5424 25.9165 65.4124 26.2771C65.2866 26.6377 65.2237 27.0528 65.2237 27.5225C65.2237 27.9921 65.2866 28.4073 65.4124 28.7679C65.5382 29.1285 65.7374 29.4115 66.0099 29.617C66.2825 29.8225 66.6347 29.9252 67.0666 29.9252ZM73.4684 30.9253V25.3147H71.1475V24.1322H77.104V25.3147H74.783V30.9253H73.4684ZM80.0324 31.114C79.5292 31.114 79.1078 31.0217 78.7681 30.8372C78.4285 30.6485 78.1706 30.4011 77.9945 30.095C77.8226 29.7847 77.7366 29.4451 77.7366 29.0761C77.7366 28.7322 77.7974 28.4303 77.919 28.1703C78.0406 27.9104 78.2209 27.6902 78.4599 27.5099C78.6989 27.3254 78.9925 27.1765 79.3405 27.0633C79.6424 26.9753 79.9842 26.8977 80.3658 26.8306C80.7473 26.7635 81.1478 26.7006 81.5671 26.6419C81.9906 26.5832 82.41 26.5245 82.8251 26.4658L82.3471 26.73C82.3555 26.1974 82.2422 25.8032 82.0074 25.5475C81.7768 25.2875 81.3784 25.1575 80.8123 25.1575C80.4559 25.1575 80.1288 25.2414 79.8311 25.4091C79.5334 25.5726 79.3258 25.8452 79.2084 26.2268L77.9819 25.8494C78.1496 25.2665 78.4683 24.8032 78.938 24.4593C79.4118 24.1155 80.0408 23.9435 80.8249 23.9435C81.4329 23.9435 81.9613 24.0484 82.41 24.258C82.8628 24.4635 83.1941 24.7906 83.4038 25.2393C83.5128 25.4615 83.5799 25.6963 83.605 25.9437C83.6302 26.1911 83.6428 26.4574 83.6428 26.7425V30.9253H82.4792V29.3717L82.7056 29.573C82.4246 30.0929 82.0661 30.4808 81.63 30.7366C81.1981 30.9882 80.6656 31.114 80.0324 31.114ZM80.2651 30.0384C80.6383 30.0384 80.9591 29.9734 81.2275 29.8434C81.4958 29.7093 81.7118 29.5394 81.8753 29.334C82.0389 29.1285 82.1458 28.9146 82.1961 28.6924C82.2674 28.4911 82.3072 28.2647 82.3156 28.0131C82.3282 27.7615 82.3345 27.5602 82.3345 27.4093L82.7622 27.5665C82.3471 27.6294 81.9697 27.686 81.63 27.7363C81.2904 27.7867 80.9822 27.837 80.7054 27.8873C80.4329 27.9334 80.1896 27.99 79.9758 28.0571C79.7955 28.12 79.634 28.1955 79.4915 28.2835C79.3531 28.3716 79.242 28.4785 79.1581 28.6043C79.0784 28.7301 79.0386 28.8832 79.0386 29.0635C79.0386 29.2396 79.0826 29.4031 79.1707 29.5541C79.2587 29.7009 79.3929 29.8183 79.5732 29.9063C79.7535 29.9944 79.9842 30.0384 80.2651 30.0384Z" fill="url(#paint0_linear_405_505)"/>
<path d="M7.12863 14.8332H23.9735C26.2642 14.8332 28.128 16.7193 28.128 19.0376V20.2137H31.1021C32.8787 20.2137 34.3189 18.7561 34.3189 16.9582V11.4536H7.12863V14.8332Z" fill="url(#paint1_linear_405_505)"/>
<path d="M31.1021 3.62109H10.3454C8.56886 3.62109 7.12863 5.07863 7.12863 6.87653V8.25878H34.3189V6.87653C34.3189 5.07863 32.8787 3.62109 31.1021 3.62109Z" fill="url(#paint2_linear_405_505)"/>
<path d="M23.9735 15.7821H3.21678C1.44023 15.7821 0 17.2397 0 19.0376V29.1193C0 30.9172 1.44023 32.3748 3.21678 32.3748H23.9735C25.7501 32.3748 27.1903 30.9172 27.1903 29.1193V19.0376C27.1903 17.2397 25.7502 15.7821 23.9735 15.7821ZM7.43409 23.8378C7.43409 24.2268 7.12238 24.5423 6.73792 24.5423H3.03838C2.65393 24.5423 2.3423 24.2268 2.3423 23.8378V21.5367C2.3423 21.1475 2.65393 20.8321 3.03838 20.8321H6.73792C7.12238 20.8321 7.43409 21.1475 7.43409 21.5367V23.8378ZM20.6728 30.4167C19.8292 30.4167 19.1453 29.7246 19.1453 28.8708C19.1453 28.0169 19.8292 27.3248 20.6728 27.3248C21.5165 27.3248 22.2004 28.0169 22.2004 28.8708C22.2004 29.7246 21.5165 30.4167 20.6728 30.4167ZM24.1352 30.4167C23.2915 30.4167 22.6076 29.7246 22.6076 28.8708C22.6076 28.0169 23.2915 27.3248 24.1352 27.3248C24.9788 27.3248 25.6627 28.0169 25.6627 28.8708C25.6627 29.7246 24.9788 30.4167 24.1352 30.4167Z" fill="url(#paint3_linear_405_505)"/>
</g>
<defs>
<linearGradient id="paint0_linear_405_505" x1="86.7103" y1="0.925293" x2="86.7103" y2="34.9253" gradientUnits="userSpaceOnUse">
<stop stop-color="white"/>
<stop offset="1" stop-color="#999999"/>
</linearGradient>
<linearGradient id="paint1_linear_405_505" x1="17.1594" y1="3.62109" x2="17.1594" y2="32.3748" gradientUnits="userSpaceOnUse">
<stop stop-color="white"/>
<stop offset="1" stop-color="#999999"/>
</linearGradient>
<linearGradient id="paint2_linear_405_505" x1="17.1594" y1="3.62109" x2="17.1594" y2="32.3748" gradientUnits="userSpaceOnUse">
<stop stop-color="white"/>
<stop offset="1" stop-color="#999999"/>
</linearGradient>
<linearGradient id="paint3_linear_405_505" x1="17.1594" y1="3.62109" x2="17.1594" y2="32.3748" gradientUnits="userSpaceOnUse">
<stop stop-color="white"/>
<stop offset="1" stop-color="#999999"/>
</linearGradient>
</defs>
</svg>
