<svg width="90" height="36" viewBox="0 0 90 36" fill="none" xmlns="http://www.w3.org/2000/svg">
<g opacity="0.75">
<path d="M16.689 0.0760259C8.99003 0.788897 2.80587 5.779 0.738543 12.9077C-0.312942 16.5255 -0.241655 19.9473 0.952404 23.5473C1.79003 26.078 3.03755 28.1632 4.90884 30.1236C11.0574 36.5929 20.8415 37.6265 28.291 32.5651C31.6059 30.3196 34.0653 26.8622 35.3306 22.6919C35.794 21.2127 35.8296 20.8562 35.8296 17.9691C35.8296 14.3156 35.5801 13.1037 34.2257 10.3236C31.891 5.4582 27.8811 2.10771 22.7306 0.681967C21.5009 0.361174 18.4712 -0.0487266 17.6692 0.00473878C17.4732 0.0225606 17.0277 0.0582041 16.689 0.0760259ZM24.5306 29.7493L20.3425 29.6424L20.289 25.6859L20.2534 21.7117H17.8118L14.3187 29.7315H12.0376C10.7722 29.7315 9.73854 29.6958 9.73854 29.678C9.73854 29.6424 10.6475 27.6107 11.7524 25.1513L13.7841 20.6958L12.9643 20.0899C11.0752 18.682 10.1306 16.3295 10.3088 13.4245C10.5405 9.71761 12.9286 7.40078 17.3128 6.58098C17.8118 6.49187 19.6296 6.42058 21.3762 6.40276L24.5306 6.38494V29.7493Z" fill="url(#paint0_linear_405_508)"/>
<path d="M16.9207 10.1453C15.2277 10.7869 14.5504 11.874 14.5504 13.8879C14.5504 15.2958 14.8534 16.1869 15.6019 16.9176C16.3682 17.7018 17.7049 18.1473 19.2197 18.1473H20.2534V9.77107L19.0593 9.7889C18.293 9.7889 17.5088 9.91365 16.9207 10.1453Z" fill="url(#paint1_linear_405_508)"/>
<path d="M43.7781 27.0582H47.3425V20.8206H48.4653C52.7603 20.8206 55.2554 19.7691 56.3781 17.4701C56.8237 16.5612 56.8772 16.2582 56.8772 14.6721C56.8772 13.1038 56.8237 12.7651 56.4138 11.9988C55.8791 10.9473 54.8811 10.1453 53.4554 9.57504C52.5108 9.20078 52.0831 9.16514 48.1088 9.09385L43.7781 9.02256V27.0582ZM52.1722 12.5869C53.0455 13.1216 53.4732 14.1552 53.3128 15.3315C53.0633 17.0958 52.1722 17.6483 49.3564 17.7552L47.3425 17.8443V12.0523L49.4455 12.1057C51.2276 12.177 51.6197 12.2305 52.1722 12.5869Z" fill="url(#paint2_linear_405_508)"/>
<path d="M63.3286 9.80672C63.1861 10.2344 61.7781 14.2443 60.192 18.7354C58.6059 23.2265 57.3227 26.9335 57.3227 26.9869C57.3227 27.0226 57.9999 27.0582 58.8197 27.0582H60.3168L60.8158 25.5968C61.0831 24.777 61.4395 23.779 61.6177 23.3513L61.9385 22.6028L65.5385 22.6384L69.1207 22.6919L70.6178 26.9691L72.4534 27.0226C73.897 27.0582 74.2712 27.0226 74.2178 26.8443C74.1643 26.7196 72.7385 22.6562 71.0455 17.8265L67.9623 9.05821H63.596L63.3286 9.80672ZM66.8217 16.0978C67.4811 17.9513 68.0158 19.5374 68.0158 19.6087C68.0158 19.6978 66.893 19.7513 65.5207 19.7513C63.6494 19.7513 63.0257 19.6978 63.0257 19.5196C63.0257 19.0919 65.4138 12.4443 65.5207 12.5691C65.592 12.6582 66.1801 14.2265 66.8217 16.0978Z" fill="url(#paint3_linear_405_508)"/>
<path d="M73.897 9.16514C73.897 9.2186 75.1801 11.5354 76.7484 14.3335L79.5999 19.3948V27.076L83.2534 26.9691L83.3069 23.1018L83.3425 19.2523L85.7663 14.9037C87.1029 12.5156 88.3861 10.2344 88.6178 9.80672L89.0633 9.0582H85.695L83.7702 12.5335C82.7187 14.4582 81.8098 16.0622 81.7207 16.0978C81.6494 16.1513 80.7405 14.583 79.689 12.6226L77.7821 9.0582H75.8395C74.7702 9.0582 73.897 9.11167 73.897 9.16514Z" fill="url(#paint4_linear_405_508)"/>
</g>
<defs>
<linearGradient id="paint0_linear_405_508" x1="44.5316" y1="0" x2="44.5316" y2="35.7663" gradientUnits="userSpaceOnUse">
<stop stop-color="white"/>
<stop offset="1" stop-color="#999999"/>
</linearGradient>
<linearGradient id="paint1_linear_405_508" x1="44.5316" y1="0" x2="44.5316" y2="35.7663" gradientUnits="userSpaceOnUse">
<stop stop-color="white"/>
<stop offset="1" stop-color="#999999"/>
</linearGradient>
<linearGradient id="paint2_linear_405_508" x1="44.5316" y1="0" x2="44.5316" y2="35.7663" gradientUnits="userSpaceOnUse">
<stop stop-color="white"/>
<stop offset="1" stop-color="#999999"/>
</linearGradient>
<linearGradient id="paint3_linear_405_508" x1="44.5316" y1="0" x2="44.5316" y2="35.7663" gradientUnits="userSpaceOnUse">
<stop stop-color="white"/>
<stop offset="1" stop-color="#999999"/>
</linearGradient>
<linearGradient id="paint4_linear_405_508" x1="44.5316" y1="0" x2="44.5316" y2="35.7663" gradientUnits="userSpaceOnUse">
<stop stop-color="white"/>
<stop offset="1" stop-color="#999999"/>
</linearGradient>
</defs>
</svg>
