<svg width="142" height="55" viewBox="0 0 142 55" fill="none" xmlns="http://www.w3.org/2000/svg">
<g opacity="0.75">
<mask id="mask0_405_557" style="mask-type:alpha" maskUnits="userSpaceOnUse" x="0" y="0" width="142" height="36">
<rect width="142" height="36" fill="#D9D9D9"/>
</mask>
<g mask="url(#mask0_405_557)">
<path d="M-77.9944 14.633C-81.075 14.633 -82.6564 16.8886 -82.6564 20.0131C-82.6564 23.2609 -81.2367 25.396 -77.7888 25.396C-76.3115 25.396 -75.0782 24.9849 -74.1545 24.4449V22.8909C-75.2837 23.5624 -76.3115 23.9571 -77.4188 23.9571C-79.5319 23.9571 -80.5405 22.8717 -80.5405 20.4023H-73.8476V19.6486C-73.8448 16.2939 -75.4263 14.633 -77.9944 14.633ZM-80.4994 19.0237C-80.2747 16.9736 -79.3072 16.0061 -78.0547 16.0061C-76.9447 16.0061 -75.8977 16.864 -75.7963 19.0237H-80.4994ZM-67.0669 14.633C-68.1769 14.633 -69.2239 15.0633 -69.8433 15.3922V9.53788L-71.9784 10.0504V24.3874C-70.745 25.0424 -69.0622 25.3932 -67.9714 25.3932C-64.9922 25.3932 -63.1449 23.5213 -63.1449 19.6787C-63.1449 16.398 -64.5207 14.633 -67.0669 14.633ZM-67.9714 23.9543C-68.4866 23.9543 -69.202 23.916 -69.8598 23.6282V16.9105C-69.0375 16.4583 -68.44 16.2336 -67.6233 16.2336C-66.2474 16.2336 -65.2991 17.0777 -65.2991 19.6815C-65.2991 23.0115 -66.4502 23.9543 -67.9714 23.9543ZM-24.5494 17.7136V25.1466H-26.6844V18.1823C-26.6844 16.5597 -27.482 16.2719 -28.5372 16.2719C-29.3567 16.2719 -30.4064 16.642 -31.0423 17.012V25.1438H-33.1746V16.1486C-32.2509 15.595 -30.2995 14.6302 -27.937 14.6302C-25.4757 14.633 -24.5494 15.5977 -24.5494 17.7136ZM-49.2985 10.5849H-46.7523V25.1466H-48.9696V14.5864H-49.1533L-53.3439 25.1466H-54.6567L-58.8474 14.8358H-59.031V25.1466H-60.8783V10.5849H-58.3951L-53.7934 22.0632H-53.6892L-49.2985 10.5849ZM-39.81 14.633C-42.5206 14.633 -44.4939 16.4199 -44.4939 20.0131C-44.4939 23.524 -42.622 25.396 -39.81 25.396C-36.9952 25.396 -35.126 23.524 -35.126 20.0131C-35.126 16.4172 -37.0993 14.633 -39.81 14.633ZM-39.81 23.9543C-41.2681 23.9543 -42.337 22.8306 -42.337 20.0131C-42.337 17.2394 -41.1639 16.0691 -39.81 16.0691C-38.4122 16.0691 -37.283 17.2394 -37.283 20.0131C-37.283 22.8306 -38.3519 23.9543 -39.81 23.9543ZM26.2124 27.9421L29.833 32.0807C29.1149 32.6371 28.3283 33.166 27.465 33.6539C24.8475 35.1476 21.8135 36 18.5931 36C8.67972 36 0.591705 27.9147 0.591705 18.0014C0.591705 8.08527 8.67972 0 18.5931 0C21.4161 0 24.0965 0.657786 26.4837 1.82535C26.8592 2.0035 27.2292 2.20084 27.5993 2.41462L25.9438 3.89738L23.4607 1.32379L19.2591 5.07316L16.7705 2.34884L8.93461 9.40358L13.9557 14.9372L11.9796 16.6694L16.9267 22.2085L14.9616 23.9379L22.0273 31.8011L26.2124 27.9421ZM34.8075 16.7708L36.7315 18.9113L34.5937 20.8381L32.6669 18.6975L34.8075 16.7708ZM-5.84088 14.9783H-3.64004L-7.35378 25.2507C-8.38157 28.0874 -9.6341 29.5647 -11.9939 29.5647V27.8846C-10.5961 27.8846 -9.73551 26.7773 -9.24217 25.2562L-13.1834 14.981H-10.925L-8.29661 22.5428H-8.17327L-5.84088 14.9783ZM-17.977 14.633C-21.0604 14.633 -22.6391 16.8886 -22.6391 20.0131C-22.6391 23.2609 -21.2221 25.396 -17.7742 25.396C-16.2969 25.396 -15.069 24.9849 -14.1427 24.4449V22.8909C-15.2691 23.5624 -16.2969 23.9571 -17.4042 23.9571C-19.5173 23.9571 -20.5287 22.8717 -20.5287 20.4023H-13.833V19.6486C-13.8275 16.2939 -15.4116 14.633 -17.977 14.633ZM-20.4875 19.0237C-20.2573 16.9736 -19.2898 16.0061 -18.0373 16.0061C-16.9328 16.0061 -15.8803 16.864 -15.7789 19.0237H-20.4875ZM31.8447 24.3134L34.7362 27.5255L31.524 30.4171L28.6298 27.2049L31.8447 24.3134ZM23.3182 4.58805L26.2097 7.80023L22.9975 10.6917L20.106 7.47956L23.3182 4.58805ZM16.5293 5.69806L20.3828 9.97914L16.1017 13.8327L12.2482 9.55158L16.5293 5.69806ZM25.9575 17.1463L23.066 13.9368L26.2727 11.0453L29.1697 14.2547L25.9575 17.1463ZM29.9289 12.3417L32.0639 10.4149L33.988 12.5555L31.8557 14.4822L29.9289 12.3417ZM-85.6576 10.5849H-83.2539L-86.5839 25.1466H-88.804L-91.5968 14.8961H-91.7421L-94.4527 25.1466H-96.6727L-100 10.5849H-97.6978L-95.3982 21.4493H-95.253L-92.5835 10.5849H-90.7554L-87.8995 21.4493H-87.7542L-85.6576 10.5849ZM28.7038 23.9269L25.8068 20.7202L29.019 17.826L31.916 21.0327L28.7038 23.9269ZM27.1936 5.98036L29.3342 4.0536L31.2582 6.19414L29.1204 8.1209L27.1936 5.98036ZM19.1686 21.1423L15.3151 16.8612L19.5962 13.0022L23.4497 17.2833L19.1686 21.1423ZM22.2136 28.5424L18.3629 24.2613L22.6412 20.4078L26.4947 24.6889L22.2136 28.5424Z" fill="url(#paint0_linear_405_557)"/>
<path d="M64.0056 14.633C60.925 14.633 59.3436 16.8886 59.3436 20.0131C59.3436 23.2609 60.7633 25.396 64.2112 25.396C65.6885 25.396 66.9218 24.9849 67.8455 24.4449V22.8909C66.7163 23.5624 65.6885 23.9571 64.5812 23.9571C62.4681 23.9571 61.4595 22.8717 61.4595 20.4023H68.1524V19.6486C68.1552 16.2939 66.5737 14.633 64.0056 14.633ZM61.5006 19.0237C61.7253 16.9736 62.6928 16.0061 63.9453 16.0061C65.0553 16.0061 66.1023 16.864 66.2037 19.0237H61.5006ZM74.9331 14.633C73.8231 14.633 72.7761 15.0633 72.1567 15.3922V9.53788L70.0216 10.0504V24.3874C71.255 25.0424 72.9378 25.3932 74.0286 25.3932C77.0078 25.3932 78.8551 23.5213 78.8551 19.6787C78.8551 16.398 77.4793 14.633 74.9331 14.633ZM74.0286 23.9543C73.5134 23.9543 72.798 23.916 72.1402 23.6282V16.9105C72.9625 16.4583 73.56 16.2336 74.3767 16.2336C75.7526 16.2336 76.7009 17.0777 76.7009 19.6815C76.7009 23.0115 75.5498 23.9543 74.0286 23.9543ZM117.451 17.7136V25.1466H115.316V18.1823C115.316 16.5597 114.518 16.2719 113.463 16.2719C112.643 16.2719 111.594 16.642 110.958 17.012V25.1438H108.825V16.1486C109.749 15.595 111.701 14.6302 114.063 14.6302C116.524 14.633 117.451 15.5977 117.451 17.7136ZM92.7015 10.5849H95.2477V25.1466H93.0304V14.5864H92.8467L88.6561 25.1466H87.3433L83.1526 14.8358H82.969V25.1466H81.1217V10.5849H83.6049L88.2066 22.0632H88.3108L92.7015 10.5849ZM102.19 14.633C99.4794 14.633 97.5061 16.4199 97.5061 20.0131C97.5061 23.524 99.378 25.396 102.19 25.396C105.005 25.396 106.874 23.524 106.874 20.0131C106.874 16.4172 104.901 14.633 102.19 14.633ZM102.19 23.9543C100.732 23.9543 99.663 22.8306 99.663 20.0131C99.663 17.2394 100.836 16.0691 102.19 16.0691C103.588 16.0691 104.717 17.2394 104.717 20.0131C104.717 22.8306 103.648 23.9543 102.19 23.9543ZM168.212 27.9421L171.833 32.0807C171.115 32.6371 170.328 33.166 169.465 33.6539C166.848 35.1476 163.813 36 160.593 36C150.68 36 142.592 27.9147 142.592 18.0014C142.592 8.08527 150.68 0 160.593 0C163.416 0 166.097 0.657786 168.484 1.82535C168.859 2.0035 169.229 2.20084 169.599 2.41462L167.944 3.89738L165.461 1.32379L161.259 5.07316L158.77 2.34884L150.935 9.40358L155.956 14.9372L153.98 16.6694L158.927 22.2085L156.962 23.9379L164.027 31.8011L168.212 27.9421ZM176.807 16.7708L178.731 18.9113L176.594 20.8381L174.667 18.6975L176.807 16.7708ZM136.159 14.9783H138.36L134.646 25.2507C133.618 28.0874 132.366 29.5647 130.006 29.5647V27.8846C131.404 27.8846 132.264 26.7773 132.758 25.2562L128.817 14.981H131.075L133.703 22.5428H133.827L136.159 14.9783ZM124.023 14.633C120.94 14.633 119.361 16.8886 119.361 20.0131C119.361 23.2609 120.778 25.396 124.226 25.396C125.703 25.396 126.931 24.9849 127.857 24.4449V22.8909C126.731 23.5624 125.703 23.9571 124.596 23.9571C122.483 23.9571 121.471 22.8717 121.471 20.4023H128.167V19.6486C128.173 16.2939 126.588 14.633 124.023 14.633ZM121.512 19.0237C121.743 16.9736 122.71 16.0061 123.963 16.0061C125.067 16.0061 126.12 16.864 126.221 19.0237H121.512ZM173.845 24.3134L176.736 27.5255L173.524 30.4171L170.63 27.2049L173.845 24.3134ZM165.318 4.58805L168.21 7.80023L164.997 10.6917L162.106 7.47956L165.318 4.58805ZM158.529 5.69806L162.383 9.97914L158.102 13.8327L154.248 9.55158L158.529 5.69806ZM167.958 17.1463L165.066 13.9368L168.273 11.0453L171.17 14.2547L167.958 17.1463ZM171.929 12.3417L174.064 10.4149L175.988 12.5555L173.856 14.4822L171.929 12.3417ZM56.3424 10.5849H58.7461L55.4161 25.1466H53.196L50.4032 14.8961H50.2579L47.5473 25.1466H45.3273L42 10.5849H44.3022L46.6018 21.4493H46.747L49.4165 10.5849H51.2446L54.1005 21.4493H54.2458L56.3424 10.5849ZM170.704 23.9269L167.807 20.7202L171.019 17.826L173.916 21.0327L170.704 23.9269ZM169.194 5.98036L171.334 4.0536L173.258 6.19414L171.12 8.1209L169.194 5.98036ZM161.169 21.1423L157.315 16.8612L161.596 13.0022L165.45 17.2833L161.169 21.1423ZM164.214 28.5424L160.363 24.2613L164.641 20.4078L168.495 24.6889L164.214 28.5424Z" fill="url(#paint1_linear_405_557)"/>
</g>
<path d="M62.108 51L59.161 40.92H60.932L62.941 48.2L64.943 40.934L66.714 40.92L68.723 48.2L70.725 40.92H72.496L69.556 51H67.89L65.825 43.832L63.774 51H62.108ZM73.6382 51V40.92H75.1572L78.6432 48.06L82.1292 40.92H83.6482V51H82.0732V44.539L78.9792 51H78.3072L75.2202 44.539V51H73.6382ZM85.3348 51V50.769L90.3048 42.502H85.6848V40.92H93.2238V41.158L88.2818 49.411H93.1048V51H85.3348Z" fill="url(#paint2_linear_405_557)"/>
</g>
<defs>
<linearGradient id="paint0_linear_405_557" x1="-31.6343" y1="0" x2="-31.6343" y2="36" gradientUnits="userSpaceOnUse">
<stop stop-color="white"/>
<stop offset="1" stop-color="#999999"/>
</linearGradient>
<linearGradient id="paint1_linear_405_557" x1="110.366" y1="0" x2="110.366" y2="36" gradientUnits="userSpaceOnUse">
<stop stop-color="white"/>
<stop offset="1" stop-color="#999999"/>
</linearGradient>
<linearGradient id="paint2_linear_405_557" x1="76.5" y1="36" x2="76.5" y2="55" gradientUnits="userSpaceOnUse">
<stop stop-color="white"/>
<stop offset="1" stop-color="#999999"/>
</linearGradient>
</defs>
</svg>
