<svg width="87" height="50" viewBox="0 0 87 50" fill="none" xmlns="http://www.w3.org/2000/svg">
<path opacity="0.75" d="M86.9998 32.9685H82.6725V24.6178H78.5059V32.9685H74.1787V21.0632H86.9998V32.9685Z" fill="url(#paint0_linear_119_968)"/>
<path opacity="0.75" fill-rule="evenodd" clip-rule="evenodd" d="M65.5666 32.9684C69.4576 32.9684 72.3472 30.5812 72.3472 26.9624C72.3472 23.4599 70.2153 21.1857 66.6524 21.1857C65.0083 21.1857 63.6515 21.7647 62.6295 22.764C62.8734 20.6986 64.619 19.191 66.5409 19.191C66.9844 19.191 70.3235 19.1837 70.3235 19.1837L72.2119 15.5684C72.2119 15.5684 68.0196 15.6639 66.0708 15.6639C61.6178 15.7414 58.6104 19.7913 58.6104 24.7098C58.6104 30.4401 61.5436 32.9684 65.5666 32.9684ZM65.5903 24.388C67.0349 24.388 68.0366 25.338 68.0366 26.962C68.0366 28.4237 67.1467 29.6281 65.5903 29.6313C64.1017 29.6313 63.1 28.5154 63.1 26.9869C63.1 25.3624 64.1017 24.388 65.5903 24.388Z" fill="url(#paint1_linear_119_968)"/>
<path opacity="0.75" d="M54.9089 28.9233C54.9089 28.9233 53.8544 29.5048 52.2797 29.6149C50.4693 29.6663 48.8563 28.5722 48.8563 26.6279C48.8563 24.7314 50.2796 23.6444 52.2342 23.6444C53.4325 23.6444 55.0179 24.4393 55.0179 24.4393C55.0179 24.4393 56.1779 22.4021 56.7788 21.3833C55.6786 20.585 54.2129 20.1475 52.5083 20.1475C48.2059 20.1475 44.8735 22.8319 44.8735 26.6038C44.8735 30.4238 48.0055 33.0458 52.5083 32.9668C53.7666 32.9218 55.5028 32.4989 56.5612 31.8484L54.9089 28.9233Z" fill="url(#paint2_linear_119_968)"/>
<path opacity="0.75" d="M0 10.9895L5.49474 21.5239V27.9495L0.0063924 38.4632L0.00329848 24.7262L0 10.9895Z" fill="url(#paint3_linear_119_968)"/>
<path opacity="0.75" d="M22.8945 17.357L28.6058 13.7481L40.2945 13.7368L22.8945 24.7263V17.357Z" fill="url(#paint4_linear_119_968)"/>
<path opacity="0.75" d="M22.8611 10.6379L22.8949 24.7263L16.4844 21.0599V0L22.8611 10.6379Z" fill="url(#paint5_linear_119_968)"/>
<path opacity="0.75" d="M40.2949 13.7264L28.4565 13.7368L22.6395 10.4004L16.4844 0L40.2949 13.7264Z" fill="url(#paint6_linear_119_968)"/>
<path opacity="0.75" d="M22.8949 38.8129V31.9834L16.4844 28.3894L16.488 49.4526L22.8949 38.8129Z" fill="url(#paint7_linear_119_968)"/>
<path opacity="0.75" d="M28.1016 35.7158L5.88601 21.7627L0 10.9895L39.3789 35.7016L28.1016 35.7158Z" fill="url(#paint8_linear_119_968)"/>
<path opacity="0.75" d="M16.4844 49.4527L22.438 39.0418L27.9927 35.7296L39.3791 35.7158L16.4844 49.4527Z" fill="url(#paint9_linear_119_968)"/>
<path opacity="0.75" d="M0 38.4632L16.4842 28.1867L10.9423 24.7263L5.78877 27.9416L0 38.4632Z" fill="url(#paint10_linear_119_968)"/>
<defs>
<linearGradient id="paint0_linear_119_968" x1="80.5892" y1="21.0632" x2="80.5892" y2="32.9685" gradientUnits="userSpaceOnUse">
<stop stop-color="white"/>
<stop offset="1" stop-color="#999999"/>
</linearGradient>
<linearGradient id="paint1_linear_119_968" x1="65.4788" y1="15.5684" x2="65.4788" y2="32.9684" gradientUnits="userSpaceOnUse">
<stop stop-color="white"/>
<stop offset="1" stop-color="#999999"/>
</linearGradient>
<linearGradient id="paint2_linear_119_968" x1="50.8262" y1="20.1475" x2="50.8262" y2="32.9685" gradientUnits="userSpaceOnUse">
<stop stop-color="white"/>
<stop offset="1" stop-color="#999999"/>
</linearGradient>
<linearGradient id="paint3_linear_119_968" x1="2.74737" y1="10.9895" x2="2.74737" y2="38.4632" gradientUnits="userSpaceOnUse">
<stop stop-color="white"/>
<stop offset="1" stop-color="#999999"/>
</linearGradient>
<linearGradient id="paint4_linear_119_968" x1="31.5945" y1="13.7368" x2="31.5945" y2="24.7263" gradientUnits="userSpaceOnUse">
<stop stop-color="white"/>
<stop offset="1" stop-color="#999999"/>
</linearGradient>
<linearGradient id="paint5_linear_119_968" x1="19.6896" y1="0" x2="19.6896" y2="24.7263" gradientUnits="userSpaceOnUse">
<stop stop-color="white"/>
<stop offset="1" stop-color="#999999"/>
</linearGradient>
<linearGradient id="paint6_linear_119_968" x1="28.3896" y1="0" x2="28.3896" y2="13.7368" gradientUnits="userSpaceOnUse">
<stop stop-color="white"/>
<stop offset="1" stop-color="#999999"/>
</linearGradient>
<linearGradient id="paint7_linear_119_968" x1="19.6896" y1="28.3894" x2="19.6896" y2="49.4526" gradientUnits="userSpaceOnUse">
<stop stop-color="white"/>
<stop offset="1" stop-color="#999999"/>
</linearGradient>
<linearGradient id="paint8_linear_119_968" x1="19.6895" y1="10.9895" x2="19.6895" y2="35.7158" gradientUnits="userSpaceOnUse">
<stop stop-color="white"/>
<stop offset="1" stop-color="#999999"/>
</linearGradient>
<linearGradient id="paint9_linear_119_968" x1="27.9317" y1="35.7158" x2="27.9317" y2="49.4527" gradientUnits="userSpaceOnUse">
<stop stop-color="white"/>
<stop offset="1" stop-color="#999999"/>
</linearGradient>
<linearGradient id="paint10_linear_119_968" x1="8.24211" y1="24.7263" x2="8.24211" y2="38.4632" gradientUnits="userSpaceOnUse">
<stop stop-color="white"/>
<stop offset="1" stop-color="#999999"/>
</linearGradient>
</defs>
</svg>
