<svg width="109" height="35" viewBox="0 0 109 35" fill="none" xmlns="http://www.w3.org/2000/svg">
<path opacity="0.75" fill-rule="evenodd" clip-rule="evenodd" d="M13.3714 0.374917C13.2527 0.384808 12.951 0.42437 12.7038 0.463932C12.4565 0.498549 12.0411 0.597455 11.7839 0.681524C11.5268 0.765594 11.1361 0.918898 10.9185 1.02275C10.7009 1.13154 10.3102 1.35408 10.0531 1.52717C9.79594 1.70025 9.38548 2.03159 9.14316 2.26401C8.90084 2.49644 8.54478 2.89701 8.35192 3.15416C8.15905 3.41132 7.88211 3.8465 7.74365 4.11849C7.60518 4.39048 7.41231 4.84545 7.31341 5.13228C7.21945 5.4191 7.1057 5.82956 7.0612 6.04715C7.01669 6.26475 6.96724 6.6307 6.9524 6.86312C6.93756 7.09555 6.898 7.31315 6.86833 7.34776C6.82382 7.39722 6.29468 7.41205 4.277 7.40711H1.74502C1.74502 7.69393 1.65601 9.52369 1.54721 11.66C1.43841 13.7964 1.25049 17.3916 1.12686 19.6467C1.00323 21.9017 0.844979 24.6414 0.780691 25.7294C0.711457 26.8173 0.602661 28.4987 0.533427 29.4631C0.464193 30.4274 0.365287 31.6884 0.305944 32.2571C0.2466 32.8852 0.216929 33.3946 0.241655 33.5429C0.256491 33.6814 0.305944 33.8742 0.340561 33.9781C0.380123 34.077 0.459247 34.2303 0.518591 34.3094C0.582879 34.3935 0.721347 34.5072 0.830143 34.5567C1.02301 34.6507 1.26533 34.6556 13.8115 34.6556C26.1351 34.6556 26.6 34.6507 26.7929 34.5616C26.9017 34.5122 27.0401 34.4182 27.0995 34.3539C27.1588 34.2896 27.2379 34.1561 27.2824 34.0622C27.322 33.9682 27.3764 33.7556 27.4061 33.5924C27.4506 33.355 27.4456 33.0929 27.3665 32.2571C27.3121 31.6884 27.233 30.7736 27.1885 30.2296C27.1489 29.6856 27.05 28.1624 26.966 26.8421C26.8868 25.5217 26.7533 23.2864 26.6692 21.8721C26.5901 20.4577 26.4467 17.812 26.3478 15.9872C26.2538 14.1624 26.1203 11.5315 26.0511 10.1369C25.9818 8.74728 25.9274 7.56041 25.9274 7.50601C25.9274 7.40711 25.8928 7.40711 23.3905 7.40711C21.3778 7.41205 20.8486 7.39722 20.8041 7.34776C20.7745 7.31315 20.7349 7.09555 20.7151 6.86312C20.6953 6.6307 20.6409 6.23013 20.5865 5.97297C20.5371 5.71582 20.4233 5.30042 20.3393 5.0581C20.2503 4.81578 20.0623 4.38059 19.914 4.09377C19.7656 3.80694 19.5035 3.38659 19.3304 3.15416C19.1574 2.92174 18.8062 2.536 18.5491 2.28874C18.2969 2.04148 17.8864 1.7052 17.6441 1.542C17.3968 1.37386 17.0853 1.181 16.9518 1.11671C16.8133 1.04748 16.5017 0.913953 16.2594 0.819992C16.0122 0.721087 15.6116 0.597455 15.3693 0.538111C15.122 0.483713 14.6571 0.414479 14.3308 0.384808C14.0044 0.360081 13.7027 0.3403 13.6631 0.345245C13.6487 0.347055 13.6216 0.349527 13.5873 0.352662L13.5873 0.352663C13.5278 0.358094 13.4466 0.365511 13.3714 0.374917ZM100.799 15.0525C101.031 15.008 101.387 14.9536 101.59 14.9239C101.793 14.8992 102.327 14.8893 102.777 14.8992C103.227 14.9091 103.806 14.9536 104.063 14.9932C104.32 15.0327 104.755 15.1366 105.027 15.2206C105.299 15.3097 105.655 15.4382 105.818 15.5124C105.982 15.5866 106.283 15.7597 106.486 15.8932C106.689 16.0267 107.01 16.2789 107.198 16.457C107.381 16.635 107.643 16.9218 107.777 17.0999C107.91 17.2779 108.118 17.6191 108.237 17.8664C108.36 18.1087 108.514 18.4796 108.583 18.6823C108.652 18.8851 108.751 19.2659 108.805 19.523C108.86 19.7802 108.929 20.2698 108.964 20.611C108.998 20.9918 109.008 21.5506 108.993 22.0699C108.978 22.5298 108.929 23.1232 108.885 23.3804C108.845 23.6375 108.741 24.0776 108.662 24.3546C108.578 24.6365 108.43 25.0469 108.326 25.2695C108.222 25.4969 108.049 25.8134 107.935 25.9766C107.826 26.1398 107.614 26.4168 107.465 26.5948C107.317 26.7728 107.02 27.0498 106.803 27.213C106.59 27.3761 106.209 27.6135 105.967 27.7372C105.724 27.8657 105.378 28.0141 105.2 28.0685C105.022 28.1278 104.735 28.207 104.557 28.2515C104.379 28.3009 103.979 28.3652 103.667 28.4048C103.356 28.4394 102.797 28.474 102.431 28.474C102.065 28.474 101.561 28.4493 101.318 28.4196C101.076 28.3899 100.616 28.3009 100.304 28.2218C99.9237 28.1229 99.5429 27.9795 99.1423 27.7866C98.7566 27.5937 98.4055 27.3762 98.1335 27.1536C97.9011 26.9706 97.5648 26.6294 97.3769 26.397C97.179 26.1497 96.9367 25.7689 96.7933 25.4821C96.6598 25.2101 96.4917 24.7898 96.4224 24.5425C96.3532 24.2952 96.2493 23.8502 96.1949 23.5534C96.1257 23.1875 96.0861 22.7029 96.0664 22.0699C96.0466 21.4764 96.0614 20.9374 96.096 20.611C96.1306 20.3242 96.19 19.889 96.2345 19.6467C96.2741 19.3994 96.3631 19.0236 96.4323 18.806C96.5015 18.5884 96.645 18.2323 96.7538 18.0147C96.8625 17.7971 97.0455 17.4856 97.1543 17.3224C97.2681 17.1592 97.5054 16.8724 97.6835 16.6845C97.8615 16.5015 98.1483 16.2394 98.3264 16.1059C98.5044 15.9723 98.8357 15.7646 99.0682 15.6459C99.3006 15.5223 99.6913 15.3591 99.9336 15.275C100.176 15.1959 100.567 15.0921 100.799 15.0525ZM49.7142 14.9734C49.9714 14.9437 50.3077 14.914 50.456 14.9042C50.6044 14.8943 50.9605 14.8992 51.2473 14.9091C51.5341 14.919 51.9446 14.9536 52.1622 14.9833C52.3798 15.008 52.7358 15.0723 52.9534 15.1217C53.171 15.1712 53.5271 15.28 53.7447 15.3591C53.9622 15.4382 54.254 15.5619 54.3875 15.6311C54.526 15.7003 54.7733 15.8536 54.9414 15.9723C55.1095 16.091 55.3964 16.3284 55.5793 16.5064C55.7623 16.6845 56.0195 16.9812 56.153 17.174C56.2865 17.362 56.4744 17.6636 56.5635 17.8416C56.6525 18.0197 56.786 18.3312 56.8602 18.534C56.9294 18.7367 57.0481 19.162 57.1173 19.4736C57.2212 19.9582 57.2459 20.2104 57.2657 21.2044C57.2855 21.9561 57.2706 22.5496 57.236 22.8858C57.2014 23.1727 57.1272 23.6177 57.0728 23.8749C57.0184 24.132 56.9047 24.5326 56.8256 24.765C56.7415 24.9975 56.608 25.3189 56.5239 25.4821C56.4448 25.6453 56.2865 25.9123 56.1777 26.0755C56.0689 26.2387 55.7969 26.5552 55.5793 26.7827C55.3568 27.0102 55.0354 27.2921 54.8573 27.4108C54.6793 27.5245 54.3727 27.7025 54.1798 27.8014C53.982 27.9003 53.6457 28.0339 53.438 28.1031C53.2254 28.1723 52.9188 28.2614 52.7556 28.296C52.5924 28.3355 52.2017 28.3949 51.8902 28.4295C51.5242 28.4691 50.9901 28.4789 50.3819 28.4592C49.6945 28.4394 49.3236 28.4048 48.9972 28.3306C48.7499 28.2712 48.4087 28.1773 48.2307 28.1229C48.0526 28.0635 47.6768 27.8954 47.39 27.752C47.1031 27.6086 46.6927 27.3465 46.4751 27.1734C46.2575 27.0003 45.9558 26.7135 45.8075 26.5355C45.6591 26.3525 45.4316 26.036 45.3031 25.8184C45.1745 25.6057 44.9964 25.2348 44.9025 24.9876C44.8036 24.7403 44.6849 24.3645 44.6256 24.1469C44.5712 23.9293 44.492 23.504 44.4475 23.2073C44.3931 22.8364 44.3634 22.3369 44.3634 21.6495C44.3634 20.9671 44.3882 20.4676 44.4426 20.1165C44.4871 19.8296 44.5761 19.3945 44.6404 19.1521C44.7096 18.9049 44.8481 18.5043 44.947 18.262C45.0508 18.0147 45.2684 17.6142 45.4316 17.3718C45.5948 17.1246 45.8817 16.7685 46.0745 16.5757C46.2674 16.3828 46.6234 16.096 46.8707 15.9377C47.118 15.7745 47.4938 15.5718 47.7114 15.4778C47.929 15.3888 48.3642 15.2454 48.6757 15.1663C48.9873 15.0871 49.4571 14.9981 49.7142 14.9734ZM33.5234 15.0525C33.4937 15.0723 33.4789 17.7279 33.4838 21.6594L33.4937 28.2267C36.2532 28.2267 37.0593 28.2218 37.0642 28.2119C37.0692 28.207 37.0889 27.2228 37.1038 26.0261L37.1285 23.8502C38.9088 23.7958 39.2797 23.7661 39.6753 23.682C39.9622 23.6177 40.3627 23.5089 40.5655 23.4298C40.7682 23.3507 41.1045 23.1776 41.3073 23.0441C41.51 22.9106 41.7968 22.6831 41.9403 22.5347C42.0886 22.3864 42.3161 22.0995 42.4496 21.8968C42.5832 21.694 42.7612 21.3528 42.8403 21.1402C42.9244 20.9324 43.0233 20.5962 43.0727 20.3984C43.1271 20.156 43.1519 19.8099 43.1568 19.3252C43.1568 18.9098 43.1321 18.4845 43.0925 18.3114C43.0579 18.1483 42.9639 17.8466 42.8848 17.6438C42.8106 17.4411 42.6375 17.1048 42.504 16.902C42.3705 16.6993 42.143 16.4125 41.9947 16.274C41.8463 16.1306 41.6386 15.9526 41.5298 15.8784C41.421 15.8042 41.154 15.6657 40.9364 15.5619C40.7188 15.463 40.4072 15.3443 40.244 15.2948C40.0808 15.2503 39.7693 15.1761 39.5517 15.1366C39.2401 15.0772 38.5676 15.0575 36.362 15.0377C34.824 15.0228 33.5481 15.0278 33.5234 15.0525ZM71.6268 19.528C71.6021 15.6756 71.6119 15.102 71.6713 15.0673C71.7108 15.0426 72.5367 15.0278 75.2566 15.0476L75.3061 23.7018L75.4198 24.0232C75.4841 24.2013 75.5978 24.4436 75.6671 24.5623C75.7413 24.681 75.855 24.8293 75.9242 24.8837C75.9935 24.9431 76.1715 25.0519 76.3199 25.126C76.4682 25.2002 76.7155 25.2942 76.8638 25.3337C77.0122 25.3733 77.2496 25.4079 77.3831 25.4079C77.5216 25.4079 77.7589 25.3733 77.9172 25.3337C78.0705 25.2942 78.3029 25.2052 78.4364 25.1409C78.565 25.0716 78.7529 24.9332 78.8617 24.8293C78.9656 24.7255 79.104 24.5425 79.1634 24.4189C79.2277 24.2952 79.3117 24.0727 79.3563 23.9243C79.4255 23.682 79.4354 23.1776 79.4354 19.3846C79.4354 17.0405 79.4502 15.1119 79.4749 15.102C79.4947 15.0921 80.3107 15.0772 83.0702 15.0476L83.0652 23.8007L82.9515 24.32C82.8921 24.6068 82.8081 24.9381 82.7636 25.0618C82.724 25.1854 82.6004 25.4722 82.4916 25.7046C82.3828 25.9371 82.1899 26.2684 82.0564 26.4464C81.9278 26.6245 81.725 26.8569 81.6064 26.9657C81.4877 27.0745 81.2454 27.2723 81.0673 27.3959C80.8893 27.5245 80.5678 27.7075 80.3503 27.8113C80.1327 27.9102 79.8112 28.0339 79.6332 28.0883C79.4552 28.1377 79.1436 28.2119 78.9408 28.2515C78.7381 28.291 78.2831 28.3504 77.9271 28.3751C77.482 28.4147 77.0913 28.4147 76.6561 28.3751C76.305 28.3504 75.8599 28.291 75.6671 28.2515C75.4693 28.2119 75.128 28.1229 74.9104 28.0537C74.6929 27.9795 74.3269 27.8212 74.0945 27.7025C73.862 27.5789 73.5554 27.386 73.4071 27.2723C73.2587 27.1586 73.0411 26.9509 72.9175 26.8173C72.7988 26.6789 72.6158 26.4464 72.512 26.2981C72.4131 26.1497 72.2697 25.9123 72.2004 25.7788C72.1312 25.6404 72.0274 25.3881 71.968 25.2101C71.9087 25.0321 71.8147 24.676 71.7554 24.4189C71.6614 23.9689 71.6515 23.7611 71.6268 19.528ZM85.5725 15.0525C85.5082 15.0772 85.4983 15.9526 85.5082 21.6545L85.5181 28.2267H89.1281V23.8749C89.3012 23.8403 89.7859 23.8205 90.315 23.8057C91.0172 23.7908 91.398 23.7562 91.7244 23.687C91.9717 23.6326 92.3475 23.5188 92.5651 23.4348C92.7827 23.3507 93.1041 23.1974 93.2772 23.0985C93.4503 22.9946 93.7223 22.7869 93.8904 22.6386C94.0536 22.4902 94.2811 22.2331 94.3998 22.0699C94.5135 21.9067 94.6916 21.5951 94.7954 21.3775C94.8943 21.1599 95.0279 20.7791 95.0872 20.5368C95.1515 20.2896 95.2158 19.9137 95.2356 19.6961C95.2553 19.4637 95.2454 19.0977 95.2108 18.806C95.1762 18.534 95.0971 18.1334 95.0279 17.9158C94.9586 17.6982 94.8449 17.4065 94.7756 17.2729C94.7113 17.1345 94.5828 16.9268 94.5037 16.8031C94.4196 16.6795 94.2465 16.4718 94.1229 16.3383C93.9992 16.2097 93.8014 16.0267 93.6778 15.9377C93.5542 15.8487 93.302 15.6954 93.1091 15.6014C92.9212 15.5075 92.6096 15.3838 92.4167 15.3245C92.2288 15.2652 91.848 15.186 91.576 15.1415C91.1755 15.0723 90.5771 15.0575 88.3616 15.0426C86.8681 15.0327 85.6071 15.0377 85.5725 15.0525ZM65.1386 17.5499C66.0485 16.2344 66.8397 15.1415 66.8991 15.1217C66.9535 15.097 67.8387 15.0772 68.8673 15.0772C70.618 15.0723 70.7317 15.0772 70.7169 15.1564C70.707 15.2058 69.7822 16.5361 66.6172 20.9819L66.6914 21.1303C66.7359 21.2094 67.6458 22.8117 68.7239 24.6909C70.0047 26.9311 70.6575 28.1179 70.618 28.1427C70.5883 28.1624 69.6734 28.1723 66.6073 28.1526L65.3166 25.6898C64.6094 24.3397 64.0012 23.232 63.9715 23.232C63.9369 23.232 63.7341 23.3359 63.5264 23.4644C63.3138 23.5881 63.1011 23.7265 63.0517 23.771C62.9725 23.8452 62.9627 24.0134 62.9429 28.202L59.3081 28.2267L59.2982 22.9847C59.2883 20.1016 59.2834 17.1592 59.2834 15.1465H62.9429L62.9577 17.8515C62.9627 19.983 62.9824 20.5616 63.0319 20.5616C63.0616 20.5616 63.1802 20.4231 63.289 20.25C63.3929 20.0819 64.2286 18.8653 65.1386 17.5499ZM13.49 2.04639C13.4109 2.05628 13.1735 2.0909 12.9707 2.12057C12.768 2.15024 12.4564 2.21948 12.2784 2.27387C12.1004 2.32827 11.8036 2.4519 11.6108 2.54092C11.4179 2.62993 11.0965 2.81785 10.8937 2.95138C10.691 3.08984 10.3596 3.36184 10.1618 3.55965C9.964 3.75746 9.68706 4.08879 9.54365 4.29155C9.40518 4.4943 9.19748 4.8652 9.08374 5.10752C8.96505 5.34984 8.82658 5.74052 8.76724 5.97294C8.70789 6.20537 8.64361 6.62077 8.62383 6.90266L8.59415 7.40707C17.2583 7.40707 19.0633 7.39224 19.0781 7.35762C19.093 7.32795 19.0831 7.09058 19.0534 6.82848C19.0287 6.56143 18.9595 6.16581 18.9051 5.94822C18.8457 5.73062 18.7221 5.37456 18.6281 5.15697C18.5342 4.93938 18.3265 4.57343 18.1732 4.34595C18.0199 4.11846 17.7479 3.78218 17.5698 3.60415C17.3918 3.42118 17.1248 3.18381 16.9764 3.07501C16.828 2.96621 16.561 2.79313 16.383 2.69422C16.2049 2.59532 15.8835 2.44696 15.6659 2.36783C15.4483 2.28871 15.1021 2.1898 14.8994 2.15024C14.6966 2.11068 14.3257 2.06617 14.0834 2.05134C13.8411 2.0365 13.5691 2.0365 13.49 2.04639ZM7.67433 14.9635C7.6051 15.0179 7.56059 15.1019 7.56553 15.1761C7.56553 15.2404 7.74851 15.997 7.9661 16.8526C8.18369 17.7081 8.94527 20.6802 9.65739 23.4545C10.3695 26.2288 10.9728 28.5383 10.9976 28.5828C11.0223 28.6372 11.1014 28.6718 11.1904 28.6718C11.2696 28.6718 11.3981 28.6421 11.4674 28.6075C11.5366 28.5778 11.6306 28.4937 11.6701 28.4245C11.7146 28.3553 12.2734 27.0448 12.9064 25.5068C13.5444 23.9688 14.0785 22.6979 14.0982 22.683C14.118 22.6633 15.6016 22.5594 17.3968 22.4457C20.3095 22.2676 20.6755 22.233 20.7843 22.1539C20.8634 22.0946 20.9128 22.0055 20.9178 21.9066C20.9277 21.7929 20.898 21.7187 20.8189 21.6445C20.7595 21.5901 20.1958 21.2687 19.5727 20.9374C19.2137 20.7436 18.2178 20.215 16.9652 19.5502C16.0437 19.061 14.9831 18.4981 13.9351 17.9405C11.4575 16.6251 9.13813 15.3986 8.77713 15.2107C8.35183 14.9931 8.06501 14.8744 7.95621 14.8744C7.8672 14.8744 7.73862 14.914 7.67433 14.9635ZM49.64 18.0889C49.7785 18.0246 50.001 17.9405 50.1345 17.9109C50.273 17.8762 50.5796 17.8466 50.8269 17.8466C51.0741 17.8466 51.3906 17.8762 51.5439 17.9158C51.6923 17.9554 51.9296 18.0444 52.0632 18.1087C52.2016 18.1779 52.4291 18.351 52.5725 18.4944C52.7159 18.6378 52.9138 18.9098 53.0127 19.1027C53.1116 19.2955 53.2451 19.6615 53.3094 19.9186C53.3737 20.1758 53.4429 20.6654 53.4676 21.0066C53.4924 21.3478 53.4924 21.9017 53.4726 22.2429C53.4478 22.5841 53.3934 23.0144 53.3539 23.2072C53.3143 23.4001 53.25 23.6424 53.2105 23.7512C53.1709 23.86 53.0819 24.0578 53.0176 24.1963C52.9484 24.3298 52.7802 24.5623 52.6517 24.7106C52.5181 24.854 52.3104 25.0321 52.1868 25.1013C52.0632 25.1755 51.8307 25.2744 51.6675 25.3238C51.4697 25.3832 51.2126 25.4178 50.901 25.4178C50.6439 25.4178 50.3224 25.3931 50.184 25.3584C50.0504 25.3288 49.8131 25.2447 49.6647 25.1755C49.5114 25.1013 49.2691 24.9183 49.1108 24.7551C48.9526 24.5969 48.7746 24.3743 48.7202 24.2556C48.6608 24.1419 48.557 23.8946 48.4927 23.7018C48.4284 23.5089 48.3443 23.1776 48.3048 22.96C48.2701 22.7424 48.2207 22.2973 48.2058 21.9709C48.1861 21.6248 48.191 21.15 48.2256 20.8335C48.2553 20.5318 48.3245 20.1115 48.3789 19.8939C48.4333 19.6763 48.5619 19.3203 48.6707 19.1027C48.8042 18.8257 48.9427 18.6329 49.1306 18.4598C49.274 18.3213 49.5065 18.1581 49.64 18.0889ZM101.763 17.9356C101.6 17.985 101.368 18.074 101.244 18.1383C101.12 18.2026 100.908 18.3658 100.774 18.5043C100.636 18.6428 100.443 18.9098 100.344 19.1027C100.245 19.2955 100.121 19.6368 100.062 19.8692C100.008 20.1016 99.9384 20.5813 99.9137 20.9324C99.889 21.3181 99.884 21.8226 99.9137 22.1935C99.9384 22.5347 99.978 22.9353 100.008 23.0836C100.032 23.232 100.107 23.5089 100.171 23.7018C100.235 23.8946 100.393 24.2111 100.517 24.404C100.67 24.6364 100.838 24.8293 101.012 24.9529C101.15 25.0568 101.358 25.1755 101.467 25.22C101.575 25.2645 101.753 25.3288 101.862 25.3634C101.971 25.398 102.273 25.4227 102.53 25.4178C102.787 25.4128 103.128 25.3782 103.286 25.3337C103.44 25.2942 103.687 25.2002 103.83 25.126C103.969 25.0568 104.186 24.8936 104.31 24.765C104.434 24.6414 104.602 24.404 104.691 24.2408C104.775 24.0826 104.903 23.7512 104.978 23.504C105.057 23.232 105.126 22.8067 105.161 22.416C105.205 21.9314 105.205 21.5901 105.161 21.0313C105.126 20.6209 105.057 20.1115 104.997 19.8939C104.943 19.6763 104.81 19.3301 104.706 19.1274C104.597 18.9246 104.404 18.6477 104.275 18.5142C104.147 18.3807 103.949 18.2175 103.84 18.1482C103.731 18.079 103.514 17.9801 103.361 17.9306C103.153 17.8663 102.93 17.8416 102.569 17.8466C102.238 17.8466 101.956 17.8812 101.763 17.9356ZM37.0443 19.4785C37.0345 18.2224 37.0443 17.9949 37.1037 17.9751C37.1433 17.9603 37.3905 17.9455 37.6477 17.9455C37.9048 17.9455 38.2411 17.9702 38.3895 18.0048C38.5378 18.0394 38.7653 18.1284 38.8988 18.2026C39.0769 18.3065 39.1609 18.3955 39.2549 18.5933C39.334 18.7565 39.3934 18.9889 39.4131 19.2016C39.4379 19.4686 39.423 19.612 39.3489 19.8445C39.2796 20.0522 39.1857 20.2154 39.0076 20.4033C38.8741 20.5516 38.6516 20.7247 38.5131 20.789C38.3549 20.8681 38.0977 20.9275 37.796 20.967C37.5389 20.9967 37.2669 21.0066 37.0542 20.9571L37.0443 19.4785ZM89.1528 17.9751C89.1281 17.99 89.1132 18.6724 89.1182 19.4834L89.1281 20.9571C89.3407 20.9621 89.5138 20.9621 89.6473 20.9621C89.7858 20.9571 90.0182 20.9275 90.1666 20.8978C90.3149 20.8731 90.5375 20.7939 90.6611 20.7346C90.7847 20.6703 90.9677 20.5318 91.0666 20.428C91.1655 20.3241 91.299 20.1263 91.3584 19.9928C91.4375 19.8049 91.4622 19.6466 91.4622 19.3499C91.4573 19.1175 91.4276 18.8653 91.3782 18.7318C91.3336 18.6081 91.2397 18.4449 91.1655 18.3708C91.0913 18.2916 90.9479 18.1878 90.849 18.1334C90.7452 18.0839 90.5226 18.0196 90.3545 17.99C90.1814 17.9652 89.8501 17.9405 89.6176 17.9405C89.3852 17.9405 89.1775 17.9554 89.1528 17.9751Z" fill="url(#paint0_linear_405_514)"/>
<defs>
<linearGradient id="paint0_linear_405_514" x1="54.6165" y1="0.344482" x2="54.6165" y2="34.6556" gradientUnits="userSpaceOnUse">
<stop stop-color="white"/>
<stop offset="1" stop-color="#999999"/>
</linearGradient>
</defs>
</svg>
