<svg width="132" height="14" viewBox="0 0 132 14" fill="none" xmlns="http://www.w3.org/2000/svg">
<path opacity="0.75" fill-rule="evenodd" clip-rule="evenodd" d="M100.261 0.648869C100.605 0.55246 101.115 0.449166 101.397 0.42162C101.679 0.394075 106.81 0.380302 112.794 0.394075C118.778 0.400961 124.404 0.442279 125.293 0.476711C126.58 0.524915 127.014 0.566233 127.407 0.676414C127.682 0.75905 128.102 0.91055 128.336 1.01384C128.577 1.11714 128.956 1.33062 129.183 1.48211C129.411 1.62673 129.824 1.97104 130.106 2.23272C130.382 2.50129 130.747 2.91447 130.905 3.16238C131.07 3.41029 131.311 3.84413 131.449 4.12647C131.587 4.4088 131.766 4.89085 131.848 5.19385C131.972 5.669 132 5.9238 132 6.98429C132 8.05167 131.972 8.29958 131.848 8.77474C131.759 9.07773 131.58 9.57355 131.435 9.86966C131.297 10.1727 131.049 10.6065 130.891 10.8337C130.726 11.0679 130.402 11.4535 130.168 11.6877C129.927 11.9287 129.535 12.2592 129.287 12.4245C129.039 12.5829 128.681 12.7964 128.495 12.8859C128.302 12.9823 127.958 13.1269 127.717 13.2095C127.482 13.2853 127.083 13.3886 126.828 13.4368C126.47 13.4988 123.84 13.5125 115.962 13.4988C110.246 13.485 104.51 13.4506 103.222 13.423C101.466 13.3817 100.784 13.3404 100.502 13.2577C100.295 13.2026 99.8889 13.058 99.6065 12.9341C99.3242 12.817 98.8903 12.5829 98.6424 12.4245C98.3945 12.2592 98.0433 11.9907 97.8574 11.8254C97.6646 11.667 97.334 11.2951 97.1068 11.0128C96.8795 10.7305 96.5628 10.214 96.3975 9.87655C96.2322 9.53912 96.0256 8.97444 95.943 8.63701C95.8122 8.12054 95.7915 7.83131 95.7915 6.91543C95.7915 6.00643 95.819 5.70343 95.9499 5.19385C96.0325 4.85642 96.2047 4.3606 96.3286 4.09203C96.4526 3.83035 96.673 3.42406 96.8176 3.19681C96.9622 2.96956 97.2514 2.60459 97.4649 2.37734C97.6784 2.15698 98.0227 1.8402 98.2293 1.68182C98.4358 1.51655 98.8421 1.26175 99.1245 1.11025C99.4068 0.951868 99.9164 0.752164 100.261 0.648869ZM55.7062 1.05516C56.0505 1.00007 56.6014 0.924322 56.9457 0.889891C57.29 0.862345 57.8891 0.848573 58.2886 0.869232C58.688 0.883004 59.3008 0.944981 59.6452 1.00007C59.9964 1.05516 60.5404 1.17912 60.8503 1.27553C61.167 1.37193 61.6973 1.5923 62.0416 1.76445C62.3859 1.93661 62.8611 2.22584 63.109 2.40488C63.3569 2.58393 63.7012 2.88693 63.8734 3.06597C64.0455 3.2519 64.3279 3.62376 64.5 3.88544C64.6722 4.15401 64.8925 4.56719 64.989 4.8151C65.0854 5.06301 65.2162 5.51062 65.2782 5.81362C65.3746 6.24057 65.3952 6.55045 65.3608 7.19088C65.3402 7.64538 65.2713 8.21694 65.2093 8.46485C65.1404 8.71276 64.9752 9.16037 64.8375 9.46337C64.6997 9.76637 64.4587 10.1864 64.3003 10.393C64.1488 10.5996 63.8183 10.9646 63.5635 11.2056C63.3156 11.4397 62.868 11.7703 62.5719 11.9424C62.2826 12.1146 61.7937 12.3487 61.4907 12.4658C61.1877 12.5829 60.5955 12.7619 60.1823 12.8583C59.4799 13.0305 59.3077 13.0374 57.8065 13.0443C56.4775 13.0443 56.0849 13.0236 55.6029 12.9134C55.2792 12.8446 54.7559 12.6931 54.4322 12.5829C54.1086 12.4727 53.6127 12.2523 53.3304 12.1008C53.0481 11.9493 52.6418 11.6945 52.4352 11.5293C52.2286 11.3709 51.898 11.0679 51.7052 10.8682C51.5124 10.6616 51.2232 10.2966 51.0648 10.0487C50.9064 9.8008 50.6929 9.35319 50.5828 9.05019C50.4726 8.74719 50.3486 8.26515 50.3004 7.98281C50.2522 7.67292 50.2315 7.16334 50.2522 6.70884C50.2729 6.28877 50.3417 5.75164 50.4037 5.50373C50.4657 5.25582 50.6516 4.78067 50.8169 4.43635C51.0028 4.05072 51.2852 3.61688 51.5675 3.28633C51.8154 2.99022 52.2286 2.5977 52.4834 2.40488C52.7451 2.21895 53.1858 1.93661 53.4681 1.792C53.7505 1.6405 54.2325 1.4408 54.5355 1.3375C54.8385 1.24109 55.3619 1.11714 55.7062 1.05516ZM0.133508 1.21355C0.0990765 1.23421 0.0784175 1.90218 0.0853038 2.69411C0.0990765 4.05072 0.105963 4.13335 0.236803 4.19533C0.319439 4.23665 1.29041 4.26419 2.71588 4.26419H5.05723L5.09166 12.6999C8.15608 12.7275 8.62435 12.7068 8.7001 12.6449C8.77585 12.576 8.78274 11.846 8.76896 8.43042L8.74142 4.29862C12.6391 4.24353 13.7753 4.21599 13.7822 4.2091C13.796 4.20221 13.8029 3.53424 13.8029 2.73543V1.26864C13.2933 1.186 10.2358 1.16534 6.66863 1.16534C3.1084 1.16534 0.16794 1.186 0.133508 1.21355ZM15.2628 7.08759C15.2559 4.00251 15.2628 1.40637 15.2834 1.32373L15.3179 1.16534H18.8988V12.7344L15.2834 12.6999L15.2628 7.08759ZM21.6257 1.21355C21.5913 1.24109 21.5707 3.69951 21.5775 6.89477C21.5844 9.99362 21.6051 12.576 21.6189 12.638C21.6533 12.7206 21.8943 12.7413 23.2578 12.7413C24.456 12.7344 24.8899 12.7137 24.9518 12.6517C25.0138 12.5898 25.0345 11.8254 25.0345 9.55289C25.0276 7.19088 25.0482 6.53668 25.1171 6.53668C25.1653 6.53668 25.9366 7.30106 26.8318 8.24449C27.727 9.18103 29.063 10.5721 29.7998 11.3296L31.1358 12.7068H34.3586V1.20666H31.0531C30.998 6.6262 30.9705 7.32861 30.9016 7.34238C30.8534 7.35615 30.5298 7.06693 30.1717 6.69507C29.8205 6.3232 28.8495 5.31091 28.0094 4.44324C27.1761 3.56867 26.1156 2.48752 25.6542 2.03302L24.821 1.20666C22.3901 1.17223 21.6602 1.186 21.6257 1.21355ZM37.1131 12.755L37.0993 6.96363L37.0855 1.16534L40.5563 1.20666L40.5907 3.30699C40.6251 5.04923 40.6458 5.43487 40.7284 5.53128C40.7904 5.60014 40.8937 5.64834 40.9694 5.64834C41.0452 5.64146 41.2518 5.57948 41.417 5.50373C41.6512 5.40044 42.2365 4.85642 43.724 3.34831C45.5006 1.55786 45.7623 1.31684 46.0309 1.24109C46.2581 1.17912 46.8504 1.15846 48.1794 1.17912C49.4465 1.19289 50.0456 1.22732 50.1076 1.28241C50.1833 1.34439 50.0181 1.53721 49.3088 2.21207C48.813 2.68034 47.5665 3.88544 46.5336 4.89085C45.5006 5.88937 44.6605 6.73638 44.6743 6.75704C44.6812 6.78459 45.9689 8.10676 47.5321 9.70439C49.0953 11.2951 50.3555 12.6311 50.3348 12.6724C50.3142 12.7137 49.5223 12.7413 48.1657 12.7413C46.8366 12.7413 45.962 12.7137 45.845 12.6655C45.7417 12.6242 45.4593 12.4038 45.2183 12.1628C44.9773 11.9287 44.1096 11.0335 43.2901 10.1658C42.4087 9.22923 41.6925 8.53372 41.541 8.45797C41.3964 8.3891 41.1829 8.32713 41.059 8.32713C40.9281 8.32713 40.7835 8.38222 40.7146 8.45108C40.6113 8.56126 40.5976 8.7954 40.5563 12.7688L37.1131 12.755ZM67.1375 1.22043C67.1031 1.24109 67.0824 3.84413 67.0893 7.00495L67.1031 12.7413L70.6289 12.7068L70.6495 8.78162H78.1832C78.2451 8.46485 78.2796 8.07233 78.3071 7.71424C78.3278 7.35615 78.3278 6.86034 78.3002 6.61243L78.252 6.16482C72.2196 6.19236 70.8423 6.1717 70.7528 6.13039C70.6289 6.06841 70.6151 5.99266 70.6151 5.13187C70.6151 4.23665 70.622 4.20221 70.7735 4.12647C70.8837 4.06449 71.9373 4.0576 74.7813 4.09892C78.0248 4.14024 78.6514 4.13335 78.7203 4.0576C78.7823 3.98874 78.8098 3.56867 78.8236 2.61836L78.8374 1.27553C78.3622 1.20666 75.7454 1.17912 72.7085 1.17912C69.6785 1.17223 67.1719 1.19289 67.1375 1.22043ZM80.4488 7.00495C80.4419 3.84413 80.4625 1.24109 80.497 1.22043C80.5314 1.19289 83.1413 1.17223 86.309 1.17223C90.9366 1.16534 92.0798 1.186 92.1417 1.25487C92.19 1.31684 92.2175 1.80577 92.2106 2.67345C92.2037 3.76838 92.1831 4.01628 92.1004 4.07137C92.0316 4.11958 90.6956 4.12647 88.0719 4.09203C84.491 4.05072 84.1398 4.0576 84.0297 4.1609C83.9264 4.25731 83.9057 4.40192 83.9057 5.1181C83.9057 5.57948 83.9401 6.00643 83.9746 6.06152C84.0296 6.15105 84.5599 6.1717 91.6528 6.23368L91.6735 7.43879C91.6804 8.22383 91.6597 8.66456 91.6184 8.69899C91.5771 8.72653 89.8555 8.75408 84.0434 8.74719L83.9608 8.90558C83.9057 9.01576 83.8919 9.54601 83.9195 10.8131C83.947 11.7772 83.947 12.6104 83.9332 12.6586C83.9126 12.7206 83.4994 12.7413 80.4625 12.7413L80.4488 7.00495ZM117.904 3.486C117.883 3.52043 117.924 3.66504 118.007 3.81654C118.089 3.96804 118.448 4.57404 118.806 5.15938C119.164 5.74471 119.811 6.80521 120.245 7.52139C120.672 8.23068 121.057 8.93997 121.099 9.09836C121.147 9.28429 121.154 9.63549 121.126 10.0487C121.085 10.5583 121.099 10.7235 121.168 10.7855C121.237 10.8475 121.56 10.8681 122.331 10.8544L123.399 10.8406C123.461 9.0777 123.509 8.64386 123.564 8.53368C123.597 8.47573 123.859 8.0422 124.233 7.42293L124.234 7.42239L124.237 7.41644C124.485 7.00662 124.781 6.51608 125.093 5.99951C126.043 4.45008 126.518 3.60307 126.491 3.52043C126.456 3.41025 126.367 3.41025 125.341 3.45157C124.404 3.49288 124.205 3.52043 124.101 3.62372C124.032 3.69259 123.619 4.42254 123.185 5.2489C122.579 6.39891 122.373 6.73635 122.283 6.72257C122.214 6.71569 122.07 6.53664 121.96 6.33005C121.849 6.12346 121.533 5.5519 121.25 5.05608C120.975 4.56027 120.699 4.0369 120.644 3.8854C120.582 3.72702 120.465 3.57552 120.369 3.52043C120.252 3.46534 119.832 3.43779 119.074 3.43779C118.454 3.43779 117.924 3.45845 117.904 3.486ZM112.064 3.90606C112.105 3.76145 112.188 3.59618 112.25 3.54109C112.326 3.46534 112.512 3.43779 112.883 3.43779C113.173 3.43779 113.937 3.45845 115.727 3.54109L115.796 3.81654C115.838 3.96804 116.478 5.56567 117.215 7.363C117.959 9.16033 118.572 10.6891 118.585 10.758C118.613 10.8681 118.523 10.875 117.497 10.875C116.877 10.875 116.313 10.8613 116.237 10.8406C116.141 10.8131 116.03 10.6478 115.686 9.80765L113.965 9.79387C112.677 9.7801 112.222 9.80076 112.153 9.86274C112.105 9.90406 112.05 10.0831 112.03 10.2553C112.009 10.4274 111.954 10.6271 111.899 10.7029C111.816 10.8268 111.713 10.8406 110.611 10.8681C109.654 10.8888 109.413 10.875 109.371 10.7993C109.351 10.7442 109.482 10.3172 109.667 9.84208C109.721 9.71004 109.806 9.50142 109.912 9.24046L109.924 9.21072L109.928 9.20201C110.204 8.52375 110.616 7.51284 110.997 6.57107C111.541 5.2489 112.023 4.04379 112.064 3.90606ZM101.452 3.59618C101.459 3.5342 101.631 3.49977 101.934 3.47911C102.189 3.46534 103.449 3.46534 104.737 3.47911C106.527 3.49977 107.168 3.5342 107.457 3.60995C107.664 3.66504 108.001 3.79588 108.208 3.89918C108.414 4.00936 108.717 4.25038 108.882 4.43631C109.048 4.62913 109.254 4.95279 109.33 5.15938C109.447 5.45549 109.482 5.69651 109.482 6.26119C109.488 6.88784 109.461 7.03246 109.316 7.35611C109.22 7.56959 109.006 7.85882 108.82 8.02409C108.635 8.18936 108.325 8.40284 108.132 8.49924C107.932 8.58877 107.547 8.71272 107.285 8.7747C106.934 8.85045 106.383 8.87799 105.308 8.87799C104.482 8.87799 103.773 8.89177 103.738 8.91242C103.697 8.93308 103.67 9.30494 103.676 9.82831V10.7924C103.67 10.8544 103.415 10.8681 101.5 10.8406L101.466 7.25971C101.445 5.29022 101.438 3.6375 101.452 3.59618ZM56.1401 3.99559C56.3742 3.91295 56.7323 3.82343 56.932 3.78211C57.1248 3.74768 57.6344 3.73391 58.0476 3.74768C58.4608 3.76145 58.9635 3.81654 59.1494 3.87163C59.3422 3.92672 59.6521 4.0369 59.838 4.11954C60.0308 4.20218 60.3338 4.38811 60.5198 4.52583C60.7057 4.66356 60.9812 4.95279 61.1258 5.15938C61.2773 5.36597 61.4563 5.7516 61.5389 6.02017C61.656 6.41269 61.6767 6.63305 61.656 7.19084C61.6285 7.81061 61.6009 7.93457 61.3737 8.39595C61.1946 8.7747 61.0156 9.01572 60.7264 9.28429C60.4991 9.48399 60.1341 9.73878 59.9069 9.84208C59.6796 9.94537 59.2458 10.09 58.9428 10.152C58.5227 10.2484 58.1991 10.269 57.5655 10.2415C56.9113 10.2139 56.6221 10.1657 56.1883 10.0211C55.8853 9.91783 55.4859 9.7319 55.2999 9.61483C55.114 9.49088 54.8385 9.25674 54.6939 9.08458C54.5424 8.91242 54.3496 8.61631 54.2601 8.43038C54.1706 8.23756 54.0673 7.94834 54.026 7.77618C53.9846 7.60402 53.9502 7.24593 53.9502 6.98425C53.9502 6.72257 53.9984 6.33005 54.0604 6.12346C54.1224 5.91687 54.2326 5.62765 54.3014 5.48303C54.3703 5.34531 54.5631 5.08363 54.7284 4.90458C54.8868 4.73242 55.176 4.48452 55.3619 4.36745C55.5547 4.24349 55.899 4.07822 56.1401 3.99559ZM103.738 5.31091C103.663 5.37289 103.642 5.57259 103.656 6.15793C103.665 6.66293 103.697 6.94527 103.752 7.00495C103.821 7.06693 104.179 7.08758 105.136 7.08758C106.204 7.08758 106.472 7.06693 106.706 6.97052C106.865 6.90165 107.023 6.79147 107.051 6.7295C107.085 6.66063 107.113 6.39207 107.113 6.1235C107.113 5.67589 107.099 5.63457 106.92 5.50373C106.817 5.42798 106.589 5.33157 106.403 5.29714C106.224 5.25582 105.577 5.22828 104.957 5.22828C104.186 5.22828 103.807 5.25582 103.738 5.31091ZM113.82 5.34534C113.786 5.41372 113.562 6.03198 113.309 6.7283L113.304 6.74327C113.049 7.44567 112.856 8.0379 112.87 8.07233C112.883 8.09987 113.379 8.12053 113.965 8.12053C114.77 8.12053 115.032 8.09987 115.032 8.0379C115.032 7.98969 114.819 7.34238 114.557 6.60554C114.247 5.73098 114.047 5.25582 113.978 5.24205C113.916 5.22828 113.848 5.27648 113.82 5.34534Z" fill="url(#paint0_linear_405_509)"/>
<defs>
<linearGradient id="paint0_linear_405_509" x1="35.1746" y1="4.03217" x2="35.1746" y2="9.52331" gradientUnits="userSpaceOnUse">
<stop stop-color="white"/>
<stop offset="1" stop-color="#999999"/>
</linearGradient>
</defs>
</svg>
