<svg width="14" height="14" viewBox="0 0 14 14" fill="none" xmlns="http://www.w3.org/2000/svg">
<path d="M4.375 3.5C4.13194 3.5 3.92535 3.58507 3.75521 3.75521C3.58507 3.92535 3.5 4.13194 3.5 4.375C3.5 4.61806 3.58507 4.82465 3.75521 4.99479C3.92535 5.16493 4.13194 5.25 4.375 5.25C4.61806 5.25 4.82465 5.16493 4.99479 4.99479C5.16493 4.82465 5.25 4.61806 5.25 4.375C5.25 4.13194 5.16493 3.92535 4.99479 3.75521C4.82465 3.58507 4.61806 3.5 4.375 3.5ZM4.375 9.33333C4.13194 9.33333 3.92535 9.4184 3.75521 9.58854C3.58507 9.75868 3.5 9.96528 3.5 10.2083C3.5 10.4514 3.58507 10.658 3.75521 10.8281C3.92535 10.9983 4.13194 11.0833 4.375 11.0833C4.61806 11.0833 4.82465 10.9983 4.99479 10.8281C5.16493 10.658 5.25 10.4514 5.25 10.2083C5.25 9.96528 5.16493 9.75868 4.99479 9.58854C4.82465 9.4184 4.61806 9.33333 4.375 9.33333ZM2.33333 1.75H11.6667C11.8319 1.75 11.9705 1.8059 12.0823 1.91771C12.1941 2.02951 12.25 2.16806 12.25 2.33333V6.41667C12.25 6.58194 12.1941 6.72049 12.0823 6.83229C11.9705 6.9441 11.8319 7 11.6667 7H2.33333C2.16806 7 2.02951 6.9441 1.91771 6.83229C1.8059 6.72049 1.75 6.58194 1.75 6.41667V2.33333C1.75 2.16806 1.8059 2.02951 1.91771 1.91771C2.02951 1.8059 2.16806 1.75 2.33333 1.75ZM2.91667 2.91667V5.83333H11.0833V2.91667H2.91667ZM2.33333 7.58333H11.6667C11.8319 7.58333 11.9705 7.63924 12.0823 7.75104C12.1941 7.86285 12.25 8.00139 12.25 8.16667V12.25C12.25 12.4153 12.1941 12.5538 12.0823 12.6656C11.9705 12.7774 11.8319 12.8333 11.6667 12.8333H2.33333C2.16806 12.8333 2.02951 12.7774 1.91771 12.6656C1.8059 12.5538 1.75 12.4153 1.75 12.25V8.16667C1.75 8.00139 1.8059 7.86285 1.91771 7.75104C2.02951 7.63924 2.16806 7.58333 2.33333 7.58333ZM2.91667 8.75V11.6667H11.0833V8.75H2.91667Z" fill="#FFC700"/>
</svg>
