<svg width="14" height="14" viewBox="0 0 14 14" fill="none" xmlns="http://www.w3.org/2000/svg">
<path d="M2.33341 11.6666C2.01258 11.6666 1.73793 11.5523 1.50946 11.3239C1.28098 11.0954 1.16675 10.8208 1.16675 10.4999V3.49992C1.16675 3.17909 1.28098 2.90443 1.50946 2.67596C1.73793 2.44749 2.01258 2.33325 2.33341 2.33325H11.6667C11.9876 2.33325 12.2622 2.44749 12.4907 2.67596C12.7192 2.90443 12.8334 3.17909 12.8334 3.49992V10.4999C12.8334 10.8208 12.7192 11.0954 12.4907 11.3239C12.2622 11.5523 11.9876 11.6666 11.6667 11.6666H2.33341ZM7.00008 7.58325L2.33341 4.66659V10.4999H11.6667V4.66659L7.00008 7.58325ZM7.00008 6.41658L11.6667 3.49992H2.33341L7.00008 6.41658ZM2.33341 4.66659V3.49992V10.4999V4.66659Z" fill="#FFC700"/>
</svg>
