<svg width="32" height="32" viewBox="0 0 32 32" fill="none" xmlns="http://www.w3.org/2000/svg">
<path d="M6.06665 25.3334C4.93331 25.3334 4.05553 24.939 3.43331 24.1501C2.81109 23.3612 2.57776 22.4001 2.73331 21.2667L4.13331 11.2667C4.33331 9.93341 4.92776 8.83341 5.91665 7.96675C6.90553 7.10008 8.06665 6.66675 9.39998 6.66675H22.6C23.9333 6.66675 25.0944 7.10008 26.0833 7.96675C27.0722 8.83341 27.6666 9.93341 27.8666 11.2667L29.2666 21.2667C29.4222 22.4001 29.1889 23.3612 28.5666 24.1501C27.9444 24.939 27.0666 25.3334 25.9333 25.3334C25.4666 25.3334 25.0333 25.2501 24.6333 25.0834C24.2333 24.9167 23.8666 24.6667 23.5333 24.3334L20.5333 21.3334H11.4666L8.46664 24.3334C8.13331 24.6667 7.76664 24.9167 7.36664 25.0834C6.96665 25.2501 6.53331 25.3334 6.06665 25.3334ZM6.59998 22.4667L10.4 18.6667H21.6L25.4 22.4667C25.4444 22.5112 25.6222 22.5779 25.9333 22.6667C26.1778 22.6667 26.3722 22.5945 26.5166 22.4501C26.6611 22.3056 26.7111 22.1112 26.6666 21.8667L25.2 11.6001C25.1111 10.9556 24.8222 10.4167 24.3333 9.98341C23.8444 9.55008 23.2666 9.33341 22.6 9.33341H9.39998C8.73331 9.33341 8.15553 9.55008 7.66665 9.98341C7.17776 10.4167 6.88887 10.9556 6.79998 11.6001L5.33331 21.8667C5.28887 22.1112 5.33887 22.3056 5.48331 22.4501C5.62776 22.5945 5.8222 22.6667 6.06665 22.6667C6.11109 22.6667 6.28887 22.6001 6.59998 22.4667ZM22.6666 17.3334C23.0444 17.3334 23.3611 17.2056 23.6166 16.9501C23.8722 16.6945 24 16.3779 24 16.0001C24 15.6223 23.8722 15.3056 23.6166 15.0501C23.3611 14.7945 23.0444 14.6667 22.6666 14.6667C22.2889 14.6667 21.9722 14.7945 21.7166 15.0501C21.4611 15.3056 21.3333 15.6223 21.3333 16.0001C21.3333 16.3779 21.4611 16.6945 21.7166 16.9501C21.9722 17.2056 22.2889 17.3334 22.6666 17.3334ZM20 13.3334C20.3778 13.3334 20.6944 13.2056 20.95 12.9501C21.2055 12.6945 21.3333 12.3779 21.3333 12.0001C21.3333 11.6223 21.2055 11.3056 20.95 11.0501C20.6944 10.7945 20.3778 10.6667 20 10.6667C19.6222 10.6667 19.3055 10.7945 19.05 11.0501C18.7944 11.3056 18.6666 11.6223 18.6666 12.0001C18.6666 12.3779 18.7944 12.6945 19.05 12.9501C19.3055 13.2056 19.6222 13.3334 20 13.3334ZM10.3333 17.3334H12.3333V15.0001H14.6666V13.0001H12.3333V10.6667H10.3333V13.0001H7.99998V15.0001H10.3333V17.3334Z" fill="#FFC700"/>
</svg>
