<svg width="14" height="14" viewBox="0 0 14 14" fill="none" xmlns="http://www.w3.org/2000/svg">
<path d="M7.70552 8.64354H3V7.41346H7.67444C8.09298 7.41346 8.43072 7.34959 8.68765 7.22184C8.94457 7.08997 9.13313 6.90659 9.2533 6.6717C9.37348 6.43681 9.43357 6.16277 9.43357 5.84959C9.43357 5.56937 9.37348 5.30769 9.2533 5.06456C9.13313 4.82143 8.94665 4.62363 8.69386 4.47115C8.44108 4.31456 8.11163 4.23626 7.70552 4.23626H5.82828V12H4.26807V3H7.70552C8.40171 3 8.9943 3.12157 9.48329 3.3647C9.97229 3.60783 10.3473 3.94368 10.6084 4.37225C10.8695 4.7967 11 5.28503 11 5.83723C11 6.42651 10.8674 6.93132 10.6022 7.35165C10.3411 7.76786 9.964 8.08722 9.47086 8.30975C8.98187 8.53228 8.39342 8.64354 7.70552 8.64354ZM7.8547 9.30494V10.535H3V9.30494H7.8547Z" fill="#FFC700"/>
</svg>
