<svg width="92" height="22" viewBox="0 0 92 22" fill="none" xmlns="http://www.w3.org/2000/svg">
<g clip-path="url(#clip0_178_951)">
<path fill-rule="evenodd" clip-rule="evenodd" d="M0.882313 0.63828C0.643027 0.896575 0.505493 1.29412 0.505493 1.81071V20.1856C0.505493 20.7022 0.643027 21.0997 0.891258 21.349L0.956111 21.404L11.2074 11.1082V10.8769L0.947166 0.583252L0.882313 0.63828Z" fill="url(#paint0_linear_178_951)"/>
<path fill-rule="evenodd" clip-rule="evenodd" d="M14.6178 14.5538L11.1984 11.1185V10.8782L14.6189 7.44287L14.6927 7.48892L18.7382 9.79784C19.8966 10.4537 19.8966 11.534 18.7382 12.1989L14.6927 14.5078C14.6916 14.5078 14.6178 14.5538 14.6178 14.5538Z" fill="url(#paint1_linear_178_951)"/>
<path fill-rule="evenodd" clip-rule="evenodd" d="M14.6916 14.5077L11.1985 10.9983L0.882324 21.3593C1.25914 21.7658 1.89314 21.8118 2.60205 21.4143L14.6916 14.5077Z" fill="url(#paint2_linear_178_951)"/>
<path fill-rule="evenodd" clip-rule="evenodd" d="M14.6916 7.48984L2.60205 0.592255C1.89426 0.185722 1.25914 0.24075 0.882324 0.647283L11.1973 10.9982L14.6916 7.48984Z" fill="url(#paint3_linear_178_951)"/>
<path opacity="0.2" fill-rule="evenodd" clip-rule="evenodd" d="M14.6177 14.4336L2.61096 21.2851C1.94007 21.6726 1.34185 21.6456 0.956089 21.2941L0.891235 21.3593L0.956089 21.4143C1.34185 21.7647 1.94007 21.7927 2.61096 21.4053L14.7005 14.5077L14.6177 14.4336Z" fill="black"/>
<path opacity="0.12" fill-rule="evenodd" clip-rule="evenodd" d="M18.7371 12.0786L14.6088 14.4336L14.6826 14.5077L18.7281 12.1988C19.3073 11.8664 19.5925 11.4329 19.5925 10.9983C19.5556 11.3958 19.2615 11.7743 18.7371 12.0786Z" fill="black"/>
<path opacity="0.25" fill-rule="evenodd" clip-rule="evenodd" d="M2.60204 0.712495L18.7371 9.91901C19.2615 10.2144 19.5556 10.6018 19.6014 10.9994C19.6014 10.5659 19.3163 10.1313 18.7371 9.79885L2.60204 0.592332C1.44363 -0.072496 0.505493 0.481153 0.505493 1.81081V1.93097C0.505493 0.601316 1.44363 0.0566513 2.60204 0.712495Z" fill="white"/>
<path fill-rule="evenodd" clip-rule="evenodd" d="M23.5396 10.4154C23.5396 7.47196 26.0029 5.07544 28.9336 5.07544C30.5538 5.07544 31.7066 5.71444 32.5765 6.5466L31.5523 7.57528C30.9306 6.98907 30.0875 6.53424 28.9325 6.53424C26.7923 6.53424 25.1195 8.26482 25.1195 10.4143C25.1195 12.5637 26.7923 14.2966 28.9313 14.2966C30.319 14.2966 31.1084 13.7373 31.6149 13.2274C32.0298 12.8108 32.3015 12.2122 32.4066 11.3913H28.9336V9.93587H33.8222C33.8736 10.1964 33.9004 10.5086 33.9004 10.8466C33.9004 11.9393 33.6019 13.2948 32.6414 14.2595C31.7066 15.2365 30.5147 15.7576 28.9325 15.7576C26.0007 15.7576 23.5374 13.3633 23.5374 10.4176L23.5396 10.4154ZM37.852 8.87911C35.959 8.87911 34.4137 10.3256 34.4137 12.3167C34.4137 14.2977 35.9579 15.7542 37.852 15.7542C39.7462 15.7542 41.2881 14.2954 41.2881 12.3155C41.2881 10.3244 39.7451 8.87798 37.852 8.87911ZM37.852 14.4021C36.8155 14.4021 35.9198 13.543 35.9198 12.3178C35.9198 11.0802 36.8144 10.2335 37.852 10.2335C38.8885 10.2335 39.7831 11.0791 39.7831 12.3178C39.7831 13.5419 38.8897 14.4021 37.852 14.4021ZM45.3493 8.87911C43.4562 8.87911 41.9132 10.3256 41.9132 12.3167C41.9132 14.2977 43.4562 15.7542 45.3493 15.7542C47.2423 15.7542 48.7854 14.2954 48.7854 12.3155C48.7854 10.3244 47.2434 8.87798 45.3493 8.87911ZM45.3493 14.4021C44.3127 14.4021 43.4171 13.543 43.4171 12.3178C43.4171 11.0802 44.3116 10.2335 45.3493 10.2335C46.3858 10.2335 47.2814 11.0791 47.2814 12.3178C47.2814 13.5419 46.3858 14.4021 45.3493 14.4021ZM54.5506 9.08799V9.64725H54.4992C54.1626 9.24184 53.5141 8.87799 52.6978 8.87799C50.9859 8.87799 49.4149 10.3896 49.4149 12.3313C49.4149 14.2572 50.9848 15.7565 52.6978 15.7565C53.5141 15.7565 54.1626 15.3926 54.4992 14.976H54.5506V15.4701C54.5506 16.7852 53.8506 17.4893 52.7224 17.4893C51.801 17.4893 51.2308 16.8245 50.9971 16.2663L49.6866 16.8132C50.0623 17.724 51.0619 18.8448 52.7213 18.8448C54.4835 18.8448 55.9751 17.8015 55.9751 15.2624V9.08687L54.5506 9.08799ZM52.8264 14.4021C51.7899 14.4021 50.9188 13.5284 50.9188 12.3313C50.9188 11.1207 51.7887 10.2346 52.8264 10.2346C53.8506 10.2346 54.6546 11.1195 54.6546 12.3313C54.6557 13.5284 53.8517 14.4021 52.8264 14.4021ZM57.0139 5.44042H58.5189V15.5476H57.0139V5.44042ZM62.6438 14.4021C61.879 14.4021 61.3333 14.0495 60.9856 13.3611L65.5633 11.4576L65.4057 11.0668C65.1217 10.2997 64.2517 8.87911 62.475 8.87911C60.7116 8.87911 59.2457 10.2728 59.2457 12.3178C59.2457 14.2438 60.6982 15.7554 62.6438 15.7554C64.2137 15.7554 65.1217 14.7929 65.4974 14.2314L64.33 13.4509C63.9398 14.0248 63.4075 14.4032 62.6438 14.4021ZM62.5264 10.2076C63.1224 10.2076 63.6278 10.5075 63.7966 10.9365L60.7351 12.2134C60.6971 10.8848 61.7605 10.2076 62.5264 10.2076Z" fill="white"/>
<path fill-rule="evenodd" clip-rule="evenodd" d="M72.1672 5.44043H68.569V15.5476H70.0707V11.7192H72.1683C73.8333 11.7192 75.4702 10.5086 75.4702 8.57927C75.4702 6.65329 73.8344 5.44155 72.1706 5.44155L72.1672 5.44043ZM72.2063 10.3121H70.0707V6.84645H72.2063C73.329 6.84645 73.9686 7.78193 73.9686 8.57927C73.9686 9.36314 73.329 10.3121 72.2063 10.3121ZM77.7994 15.5476V5.44043H76.2977V15.5476H77.7994ZM84.5452 15.5296V11.6552C84.5452 9.86064 83.2101 8.86003 81.4871 8.86003C80.4013 8.86003 79.2753 9.3418 78.8091 10.4075L80.1419 10.9657C80.427 10.4075 80.957 10.2245 81.515 10.2245C82.291 10.2245 83.0804 10.6928 83.0927 11.5261V11.6305C82.821 11.4744 82.2396 11.2397 81.5262 11.2397C80.0894 11.2397 78.6268 12.0326 78.6268 13.5149C78.6268 14.8682 79.8053 15.7385 81.1259 15.7385C82.1367 15.7385 82.6924 15.2837 83.0413 14.7514H83.0927V15.5319H84.5441L84.5452 15.5296ZM81.3081 14.3999C80.8162 14.3999 80.1296 14.1528 80.1296 13.543C80.1296 12.7625 80.985 12.4616 81.723 12.4616C82.3838 12.4616 82.6935 12.6042 83.0961 12.7996C82.9809 13.707 82.2172 14.3887 81.3081 14.3999ZM89.8263 9.08126L88.1043 13.4622H88.0529L86.2661 9.08126H84.6481L87.3272 15.2062L85.7987 18.6123H87.3652L91.4946 9.08126H89.8263Z" fill="white"/>
</g>
<defs>
<linearGradient id="paint0_linear_178_951" x1="10.2869" y1="1.6132" x2="-6.14331" y2="5.97209" gradientUnits="userSpaceOnUse">
<stop stop-color="#00A0FF"/>
<stop offset="0.007" stop-color="#00A1FF"/>
<stop offset="0.26" stop-color="#00BEFF"/>
<stop offset="0.512" stop-color="#00D2FF"/>
<stop offset="0.76" stop-color="#00DFFF"/>
<stop offset="1" stop-color="#00E3FF"/>
</linearGradient>
<linearGradient id="paint1_linear_178_951" x1="20.2456" y1="10.9989" x2="0.223936" y2="10.9989" gradientUnits="userSpaceOnUse">
<stop stop-color="#FFE000"/>
<stop offset="0.409" stop-color="#FFBD00"/>
<stop offset="0.775" stop-color="#FFA500"/>
<stop offset="1" stop-color="#FF9C00"/>
</linearGradient>
<linearGradient id="paint2_linear_178_951" x1="12.7921" y1="12.9075" x2="-0.475255" y2="35.1406" gradientUnits="userSpaceOnUse">
<stop stop-color="#FF3A44"/>
<stop offset="1" stop-color="#C31162"/>
</linearGradient>
<linearGradient id="paint3_linear_178_951" x1="-1.7145" y1="-5.47407" x2="4.2045" y2="4.45566" gradientUnits="userSpaceOnUse">
<stop stop-color="#32A071"/>
<stop offset="0.069" stop-color="#2DA771"/>
<stop offset="0.476" stop-color="#15CF74"/>
<stop offset="0.801" stop-color="#06E775"/>
<stop offset="1" stop-color="#00F076"/>
</linearGradient>
<clipPath id="clip0_178_951">
<rect width="92" height="22" fill="white"/>
</clipPath>
</defs>
</svg>
