<svg width="92" height="25" viewBox="0 0 92 25" fill="none" xmlns="http://www.w3.org/2000/svg">
<path d="M2.04947 22.2001C3.67884 23.8424 6.30121 23.8424 11.546 23.8424H12.4731C17.7179 23.8424 20.3403 23.8424 21.9697 22.2001C23.5991 20.5578 23.5991 17.9146 23.5991 12.6281V11.6936C23.5991 6.40721 23.5991 3.76394 21.9697 2.12168C20.3403 0.479492 17.7179 0.479492 12.4731 0.479492H11.546C6.30121 0.479492 3.67884 0.479492 2.04947 2.12168C0.420105 3.76394 0.420105 6.40721 0.420105 11.6936V12.6281C0.420105 17.9146 0.420105 20.5578 2.04947 22.2001Z" fill="#0077FF"/>
<path fill-rule="evenodd" clip-rule="evenodd" d="M18.3156 16.0082L16.7495 15.6138C16.5609 15.5594 16.4277 15.3883 16.421 15.1895L16.2255 9.37947C16.169 8.61045 15.6027 7.99884 15.0109 7.81872C14.9776 7.80861 14.9422 7.82225 14.9225 7.85109C14.9025 7.88033 14.9102 7.92086 14.9381 7.94265C15.0842 8.05666 15.4865 8.42877 15.4865 9.07066L15.4853 16.6671C15.4853 17.4007 14.7976 17.9386 14.0883 17.76L12.498 17.3595C12.3216 17.2973 12.1992 17.1319 12.1927 16.9409L11.9973 11.1305C11.9408 10.3615 11.3744 9.74988 10.7826 9.56977C10.7494 9.55965 10.7139 9.57329 10.6942 9.60207C10.6742 9.63137 10.6819 9.6719 10.7099 9.69363C10.856 9.8077 11.2582 10.1798 11.2582 10.8216L11.2571 17.1537L11.2579 17.1538V18.4188C11.2579 19.1524 10.5703 19.6904 9.86093 19.5117L5.36893 18.3807C4.74446 18.2234 4.30658 17.6604 4.30658 17.0146V9.40629C4.30658 8.67278 4.99421 8.13478 5.70355 8.31339L8.53395 9.02609V7.65453C8.53395 6.92101 9.22164 6.38308 9.93098 6.56163L12.7613 7.27426V5.90277C12.7613 5.16919 13.4489 4.63125 14.1582 4.80987L18.6502 5.94088C19.2747 6.09809 19.7126 6.66115 19.7126 7.30696V14.9153C19.7126 15.6488 19.0249 16.1868 18.3156 16.0082Z" fill="white"/>
<path d="M36.645 13.9013C38.3853 13.4502 39.5289 12.0971 39.5289 10.3262C39.5289 8.13776 37.8052 6.60083 35.3854 6.60083H31.0761V18.3784H33.065V14.0516H34.4738L37.5566 18.3784H39.8935L36.645 13.9013ZM35.3854 8.43847C36.6284 8.43847 37.4903 9.20697 37.4903 10.3262C37.4903 11.4455 36.6284 12.214 35.3854 12.214H33.065V8.43847H35.3854Z" fill="white"/>
<path d="M44.3698 18.5455C45.414 18.5455 46.3753 17.9942 46.9222 17.0754L47.3034 18.3784H48.7288V9.69141H46.8228V14.7199C46.8228 15.9561 46.0106 16.8248 44.9002 16.8248C43.8063 16.8248 43.0439 15.9561 43.0439 14.7199V9.69141H41.1379V14.937C41.1379 17.0253 42.5301 18.5455 44.3698 18.5455Z" fill="white"/>
<path d="M54.8114 18.5456C57.0158 18.5456 58.8393 17.2759 58.8393 15.171C58.8393 12.8154 56.9332 12.1305 55.2923 11.5625C54.0159 11.1282 52.9053 10.7273 52.9053 9.67476C52.9053 8.75597 53.7508 8.27148 54.7451 8.27148C55.7895 8.27148 56.5355 8.82279 56.9495 9.75829L58.8393 9.44093C58.2427 7.60329 56.7344 6.43384 54.6788 6.43384C52.5576 6.43384 50.867 7.67011 50.867 9.775C50.867 12.1472 52.7727 12.7987 54.4137 13.35C55.6738 13.7677 56.8007 14.1686 56.8007 15.2378C56.8007 16.1733 55.9552 16.7079 54.8283 16.7079C53.5357 16.7079 52.839 16.0898 52.2262 14.9705L50.3035 15.3046C50.867 17.2926 52.6571 18.5456 54.8114 18.5456Z" fill="white"/>
<path d="M64.024 16.7081C63.3781 16.7081 63.0629 16.3907 63.0629 15.7391V11.3622H65.6318V9.69163H63.0629V7.18579H61.6377L61.1568 9.69163H59.7479V11.3622H61.1568V15.7391C61.1568 17.4431 62.1348 18.3787 64.024 18.3787H65.6318L65.7975 16.7081H64.024Z" fill="white"/>
<path d="M71.2441 18.5456C73.9463 18.5456 75.8517 16.6745 75.8517 14.035C75.8517 11.3955 73.9463 9.52441 71.2441 9.52441C68.5426 9.52441 66.6365 11.3955 66.6365 14.035C66.6365 16.6745 68.5426 18.5456 71.2441 18.5456ZM71.2441 16.7915C69.6863 16.7915 68.6257 15.6722 68.6257 14.035C68.6257 12.3979 69.6863 11.2785 71.2441 11.2785C72.8025 11.2785 73.8631 12.3979 73.8631 14.035C73.8631 15.6722 72.8025 16.7915 71.2441 16.7915Z" fill="white"/>
<path d="M79.415 18.3784V13.2497C79.415 12.1472 79.9453 11.529 81.106 11.529H82.1997L82.034 9.69141H81.6694C80.6582 9.69141 79.879 9.97541 79.2993 10.9444L78.9347 9.69141H77.5089V18.3784H79.415Z" fill="white"/>
<path d="M91.578 13.9348C91.578 11.4289 89.722 9.52441 87.103 9.52441C84.4846 9.52441 82.6279 11.4122 82.6279 14.035C82.6279 16.6578 84.4846 18.5456 87.103 18.5456C88.8934 18.5456 90.5837 17.6935 91.2303 16.0397L89.4399 15.739C89.0259 16.3571 88.2305 16.7915 87.2193 16.7915C85.761 16.7915 84.7992 15.8893 84.6172 14.5529H91.5449C91.5618 14.3691 91.578 14.1686 91.578 13.9348ZM87.103 11.195C88.2968 11.195 89.1917 11.9635 89.5062 13.0493H84.7329C85.0481 11.9301 85.9429 11.195 87.103 11.195Z" fill="white"/>
</svg>
