<svg width="34" height="34" viewBox="0 0 34 34" fill="none" xmlns="http://www.w3.org/2000/svg">
<g filter="url(#filter0_b_171_711)">
<mask id="path-1-inside-1_171_711" fill="white">
<path fill-rule="evenodd" clip-rule="evenodd" d="M5 0C2.23858 0 0 2.23858 0 5V29C0 31.7614 2.23858 34 5 34H29C31.7614 34 34 31.7614 34 29V5C34 2.23858 31.7614 0 29 0H5ZM19.813 8.59431C19.9768 8.23341 20.3686 8.04535 20.7555 8.13153C21.6721 8.33571 22.5649 8.6158 23.4296 8.96466C24.2417 9.29232 24.91 9.89723 25.3365 10.6621C27.0448 13.7265 28 17.0987 28 20.8475C28 22.216 27.309 23.4981 26.1461 24.2195C25.1728 24.8232 24.2117 25.2915 23.2627 25.6628C22.7142 25.8774 22.0928 25.6687 21.7932 25.1617C21.7092 25.0196 21.6273 24.8756 21.5476 24.7299C21.3121 24.2993 21.5233 23.7722 21.9621 23.5523C22.2007 23.4328 22.4353 23.3046 22.6663 23.1678C22.8388 23.0657 22.8522 22.8196 22.7007 22.6883C22.6162 22.615 22.4959 22.6008 22.3952 22.6494C18.9177 24.3279 15.1251 24.3289 11.6054 22.6525C11.5001 22.6024 11.3753 22.6196 11.2872 22.6961C11.1391 22.8246 11.1494 23.0632 11.318 23.1632C11.5515 23.3018 11.7886 23.4315 12.0299 23.5523C12.4688 23.7722 12.6799 24.2993 12.4444 24.7299C12.3647 24.8757 12.2828 25.0197 12.1988 25.1619C11.8991 25.6688 11.2779 25.8775 10.7295 25.6627C9.78714 25.2936 8.83456 24.8286 7.86707 24.23C6.69166 23.5027 5.99513 22.2064 6.00015 20.8242C6.0123 17.4778 6.7751 14.0929 8.68923 10.6487C9.10868 9.89402 9.76523 9.29408 10.5654 8.96959C11.4303 8.61886 12.327 8.33734 13.2515 8.13227C13.6409 8.04589 14.0337 8.23884 14.2001 8.60135C14.3769 8.98666 14.7863 9.22204 15.2075 9.17459C16.3988 9.04042 17.5959 9.04046 18.799 9.1747C19.225 9.22222 19.6359 8.98454 19.813 8.59431ZM11.3754 17.888C11.3754 19.196 12.2648 20.264 13.3544 20.264C14.455 20.264 15.3333 19.196 15.3333 17.888C15.3555 16.58 14.455 15.512 13.3544 15.512C12.2426 15.512 11.3754 16.58 11.3754 17.888ZM18.6798 17.888C18.6798 19.196 19.5703 20.264 20.6599 20.264C21.7717 20.264 22.6389 19.196 22.6389 17.888C22.6611 16.58 21.7605 15.512 20.6599 15.512C19.548 15.512 18.6798 16.58 18.6798 17.888Z"/>
</mask>
<path fill-rule="evenodd" clip-rule="evenodd" d="M5 0C2.23858 0 0 2.23858 0 5V29C0 31.7614 2.23858 34 5 34H29C31.7614 34 34 31.7614 34 29V5C34 2.23858 31.7614 0 29 0H5ZM19.813 8.59431C19.9768 8.23341 20.3686 8.04535 20.7555 8.13153C21.6721 8.33571 22.5649 8.6158 23.4296 8.96466C24.2417 9.29232 24.91 9.89723 25.3365 10.6621C27.0448 13.7265 28 17.0987 28 20.8475C28 22.216 27.309 23.4981 26.1461 24.2195C25.1728 24.8232 24.2117 25.2915 23.2627 25.6628C22.7142 25.8774 22.0928 25.6687 21.7932 25.1617C21.7092 25.0196 21.6273 24.8756 21.5476 24.7299C21.3121 24.2993 21.5233 23.7722 21.9621 23.5523C22.2007 23.4328 22.4353 23.3046 22.6663 23.1678C22.8388 23.0657 22.8522 22.8196 22.7007 22.6883C22.6162 22.615 22.4959 22.6008 22.3952 22.6494C18.9177 24.3279 15.1251 24.3289 11.6054 22.6525C11.5001 22.6024 11.3753 22.6196 11.2872 22.6961C11.1391 22.8246 11.1494 23.0632 11.318 23.1632C11.5515 23.3018 11.7886 23.4315 12.0299 23.5523C12.4688 23.7722 12.6799 24.2993 12.4444 24.7299C12.3647 24.8757 12.2828 25.0197 12.1988 25.1619C11.8991 25.6688 11.2779 25.8775 10.7295 25.6627C9.78714 25.2936 8.83456 24.8286 7.86707 24.23C6.69166 23.5027 5.99513 22.2064 6.00015 20.8242C6.0123 17.4778 6.7751 14.0929 8.68923 10.6487C9.10868 9.89402 9.76523 9.29408 10.5654 8.96959C11.4303 8.61886 12.327 8.33734 13.2515 8.13227C13.6409 8.04589 14.0337 8.23884 14.2001 8.60135C14.3769 8.98666 14.7863 9.22204 15.2075 9.17459C16.3988 9.04042 17.5959 9.04046 18.799 9.1747C19.225 9.22222 19.6359 8.98454 19.813 8.59431ZM11.3754 17.888C11.3754 19.196 12.2648 20.264 13.3544 20.264C14.455 20.264 15.3333 19.196 15.3333 17.888C15.3555 16.58 14.455 15.512 13.3544 15.512C12.2426 15.512 11.3754 16.58 11.3754 17.888ZM18.6798 17.888C18.6798 19.196 19.5703 20.264 20.6599 20.264C21.7717 20.264 22.6389 19.196 22.6389 17.888C22.6611 16.58 21.7605 15.512 20.6599 15.512C19.548 15.512 18.6798 16.58 18.6798 17.888Z" fill="url(#paint0_linear_171_711)" fill-opacity="0.55"/>
<path d="M15.3333 17.888L14.3334 17.871L14.3333 17.8795V17.888H15.3333ZM22.6389 17.888L21.639 17.871L21.6389 17.8795V17.888H22.6389ZM18.799 9.1747L18.6882 10.1685L18.799 9.1747ZM15.2075 9.17459L15.3195 10.1683L15.2075 9.17459ZM8.68923 10.6487L7.81516 10.163L8.68923 10.6487ZM10.5654 8.96959L10.1896 8.04289L10.5654 8.96959ZM7.86707 24.23L8.39326 23.3796L7.86707 24.23ZM12.0299 23.5523L12.4778 22.6583L12.0299 23.5523ZM12.4444 24.7299L13.3218 25.2098L12.4444 24.7299ZM11.318 23.1632L11.8282 22.3032L11.318 23.1632ZM11.6054 22.6525L12.0354 21.7497L11.6054 22.6525ZM22.3952 22.6494L22.8298 23.55L22.3952 22.6494ZM22.6663 23.1678L23.1759 24.0282L22.6663 23.1678ZM21.5476 24.7299L22.425 24.2501L21.5476 24.7299ZM21.9621 23.5523L21.5142 22.6583L21.9621 23.5523ZM23.2627 25.6628L22.8983 24.7315L23.2627 25.6628ZM21.7932 25.1617L20.9323 25.6705L21.7932 25.1617ZM12.1988 25.1619L13.0596 25.6707L12.1988 25.1619ZM10.7295 25.6627L10.3648 26.5939L10.7295 25.6627ZM25.3365 10.6621L26.2099 10.1752L25.3365 10.6621ZM1 5C1 2.79086 2.79086 1 5 1V-1C1.68629 -1 -1 1.68629 -1 5H1ZM1 29V5H-1V29H1ZM5 33C2.79086 33 1 31.2091 1 29H-1C-1 32.3137 1.68629 35 5 35V33ZM29 33H5V35H29V33ZM33 29C33 31.2091 31.2091 33 29 33V35C32.3137 35 35 32.3137 35 29H33ZM33 5V29H35V5H33ZM29 1C31.2091 1 33 2.79086 33 5H35C35 1.68629 32.3137 -1 29 -1V1ZM5 1H29V-1H5V1ZM23.8038 8.0373C22.8897 7.66853 21.9445 7.37189 20.9729 7.15545L20.538 9.1076C21.3996 9.29953 22.2401 9.56308 23.0555 9.89203L23.8038 8.0373ZM29 20.8475C29 16.9194 27.9968 13.3805 26.2099 10.1752L24.463 11.1491C26.0928 14.0726 27 17.2781 27 20.8475L29 20.8475ZM23.6271 26.594C24.6293 26.2019 25.6453 25.7069 26.6732 25.0693L25.6189 23.3697C24.7003 23.9396 23.7941 24.381 22.8983 24.7315L23.6271 26.594ZM20.6702 25.2098C20.7553 25.3652 20.8426 25.5188 20.9323 25.6705L22.654 24.6529C22.5757 24.5203 22.4993 24.386 22.425 24.2501L20.6702 25.2098ZM22.1567 22.3073C21.9454 22.4325 21.7314 22.5494 21.5142 22.6583L22.41 24.4464C22.67 24.3162 22.9251 24.1767 23.1759 24.0282L22.1567 22.3073ZM11.1754 23.5553C14.9656 25.3606 19.0763 25.3617 22.8298 23.55L21.9605 21.7488C18.759 23.294 15.2845 23.2972 12.0354 21.7497L11.1754 23.5553ZM12.4778 22.6583C12.2581 22.5482 12.0418 22.4299 11.8282 22.3032L10.8078 24.0233C11.0612 24.1736 11.3191 24.3147 11.5821 24.4464L12.4778 22.6583ZM13.0596 25.6707C13.1493 25.519 13.2367 25.3653 13.3218 25.2098L11.5671 24.2501C11.4927 24.3861 11.4163 24.5204 11.3379 24.653L13.0596 25.6707ZM7.34089 25.0804C8.36206 25.7122 9.36897 26.2038 10.3648 26.5939L11.0943 24.7316C10.2053 24.3834 9.30705 23.9451 8.39326 23.3796L7.34089 25.0804ZM7.81516 10.163C5.81495 13.762 5.01289 17.3141 5.00015 20.8206L7.00014 20.8278C7.01172 17.6416 7.73525 14.4238 9.56332 11.1345L7.81516 10.163ZM13.0349 7.156C12.0549 7.37339 11.1049 7.67168 10.1896 8.04289L10.9412 9.89629C11.7556 9.56603 12.5991 9.30129 13.4681 9.10853L13.0349 7.156ZM18.9099 8.18087C17.6335 8.03845 16.3617 8.03828 15.0956 8.18088L15.3195 10.1683C16.436 10.0426 17.5583 10.0425 18.6882 10.1685L18.9099 8.18087ZM13.3544 19.264C12.9805 19.264 12.3754 18.8227 12.3754 17.888H10.3754C10.3754 19.5693 11.5491 21.264 13.3544 21.264V19.264ZM14.3333 17.888C14.3333 18.8267 13.736 19.264 13.3544 19.264V21.264C15.174 21.264 16.3333 19.5653 16.3333 17.888H14.3333ZM13.3544 16.512C13.7491 16.512 14.3489 16.9628 14.3334 17.871L16.3331 17.905C16.3622 16.1973 15.1609 14.512 13.3544 14.512V16.512ZM12.3754 17.888C12.3754 16.9454 12.9648 16.512 13.3544 16.512V14.512C11.5203 14.512 10.3754 16.2146 10.3754 17.888H12.3754ZM20.6599 19.264C20.2854 19.264 19.6798 18.822 19.6798 17.888H17.6798C17.6798 19.57 18.8553 21.264 20.6599 21.264V19.264ZM21.6389 17.888C21.6389 18.8306 21.0495 19.264 20.6599 19.264V21.264C22.4939 21.264 23.6389 19.5614 23.6389 17.888H21.6389ZM20.6599 16.512C21.0546 16.512 21.6544 16.9628 21.639 17.871L23.6387 17.9049C23.6677 16.1972 22.4664 14.512 20.6599 14.512V16.512ZM19.6798 17.888C19.6798 16.9462 20.2697 16.512 20.6599 16.512V14.512C18.8264 14.512 17.6798 16.2139 17.6798 17.888H19.6798ZM18.6882 10.1685C19.5515 10.2649 20.3706 9.7855 20.7236 9.00761L18.9024 8.18101C18.903 8.17976 18.9032 8.18042 18.9014 8.18143C18.9008 8.18178 18.9011 8.18149 18.9026 8.18117C18.9044 8.18078 18.9071 8.18055 18.9099 8.18087L18.6882 10.1685ZM13.2912 9.01844C13.6451 9.78955 14.4619 10.2649 15.3195 10.1683L15.0956 8.18088C15.1052 8.17979 15.1093 8.18262 15.1078 8.18175C15.106 8.1807 15.1072 8.18052 15.1089 8.18425L13.2912 9.01844ZM13.4681 9.10853C13.4019 9.12322 13.3233 9.08834 13.2912 9.01844L15.1089 8.18425C14.7441 7.38934 13.8799 6.96855 13.0349 7.156L13.4681 9.10853ZM9.56332 11.1345C9.87766 10.5689 10.3634 10.1306 10.9412 9.89629L10.1896 8.04289C9.16708 8.45755 8.3397 9.21913 7.81516 10.163L9.56332 11.1345ZM8.39326 23.3796C7.52304 22.8412 6.99634 21.8738 7.00014 20.8278L5.00015 20.8206C4.99391 22.5391 5.86028 24.1642 7.34089 25.0804L8.39326 23.3796ZM11.5821 24.4464C11.5743 24.4426 11.561 24.433 11.5513 24.4066C11.5458 24.3918 11.5406 24.3685 11.5423 24.3383C11.5441 24.3065 11.5533 24.2753 11.5671 24.2501L13.3218 25.2098C13.8729 24.202 13.3374 23.0888 12.4778 22.6583L11.5821 24.4464ZM10.6316 21.941C10.0237 22.4688 9.99121 23.5389 10.8078 24.0233L11.8282 22.3032C12.3075 22.5875 12.2545 23.1805 11.9428 23.4512L10.6316 21.941ZM12.0354 21.7497C11.5694 21.5277 11.0185 21.605 10.6316 21.941L11.9428 23.4512C11.732 23.6342 11.4308 23.677 11.1754 23.5553L12.0354 21.7497ZM23.3559 21.9328C22.9597 21.5892 22.4088 21.5324 21.9605 21.7488L22.8298 23.55C22.583 23.6691 22.2728 23.6408 22.0456 23.4437L23.3559 21.9328ZM23.1759 24.0282C23.9824 23.5506 23.9812 22.4751 23.3559 21.9328L22.0456 23.4437C21.7231 23.1641 21.6952 22.5807 22.1567 22.3073L23.1759 24.0282ZM22.425 24.2501C22.4387 24.2753 22.4479 24.3065 22.4497 24.3383C22.4514 24.3685 22.4462 24.3918 22.4407 24.4066C22.4311 24.433 22.4177 24.4426 22.41 24.4464L21.5142 22.6583C20.6546 23.0888 20.1191 24.202 20.6702 25.2098L22.425 24.2501ZM22.8983 24.7315C22.7988 24.7705 22.6999 24.7305 22.654 24.6529L20.9323 25.6705C21.4858 26.6069 22.6296 26.9843 23.6271 26.594L22.8983 24.7315ZM27 20.8475C27 21.8814 26.4783 22.8366 25.6189 23.3697L26.6732 25.0693C28.1397 24.1596 29 22.5506 29 20.8475L27 20.8475ZM20.9729 7.15545C20.1393 6.96977 19.2681 7.3754 18.9024 8.18101L20.7236 9.00761C20.6856 9.09143 20.5979 9.12094 20.538 9.1076L20.9729 7.15545ZM11.3379 24.653C11.2919 24.7308 11.1933 24.7704 11.0943 24.7316L10.3648 26.5939C11.3625 26.9847 12.5063 26.6069 13.0596 25.6707L11.3379 24.653ZM23.0555 9.89203C23.6471 10.1307 24.1432 10.5754 24.463 11.1491L26.2099 10.1752C25.6769 9.2191 24.8364 8.45392 23.8038 8.0373L23.0555 9.89203Z" fill="white" fill-opacity="0.1" mask="url(#path-1-inside-1_171_711)"/>
</g>
<defs>
<filter id="filter0_b_171_711" x="-21.3" y="-21.3" width="76.6" height="76.6" filterUnits="userSpaceOnUse" color-interpolation-filters="sRGB">
<feFlood flood-opacity="0" result="BackgroundImageFix"/>
<feGaussianBlur in="BackgroundImageFix" stdDeviation="10.65"/>
<feComposite in2="SourceAlpha" operator="in" result="effect1_backgroundBlur_171_711"/>
<feBlend mode="normal" in="SourceGraphic" in2="effect1_backgroundBlur_171_711" result="shape"/>
</filter>
<linearGradient id="paint0_linear_171_711" x1="0" y1="17" x2="34" y2="17" gradientUnits="userSpaceOnUse">
<stop stop-color="#A1BFBF"/>
<stop offset="1" stop-color="#97BBF0"/>
</linearGradient>
</defs>
</svg>
