<svg width="34" height="34" viewBox="0 0 34 34" fill="none" xmlns="http://www.w3.org/2000/svg">
<g filter="url(#filter0_b_171_703)">
<mask id="path-1-inside-1_171_703" fill="white">
<path fill-rule="evenodd" clip-rule="evenodd" d="M5 0C2.23858 0 0 2.23858 0 5V29C0 31.7614 2.23858 34 5 34H29C31.7614 34 34 31.7614 34 29V5C34 2.23858 31.7614 0 29 0H5ZM22.8764 26.1966L26.3092 10.0075C26.6139 8.57996 25.7965 8.02258 24.8622 8.37277L4.6821 16.1476C3.30572 16.6863 3.32603 17.4581 4.4481 17.8083L7.40357 18.7336C8.80186 19.1714 10.3218 18.9738 11.5617 18.193L21.5918 11.8771C22.1549 11.5009 22.6684 11.7097 22.2467 12.0851L13.6337 19.8679C12.9401 20.4946 12.516 21.3654 12.4502 22.2979L12.2619 24.9635C12.2158 25.6164 12.7652 26.1215 13.228 25.6587C14.6858 24.2562 16.9421 24.1082 18.5707 25.3083L20.9825 27.0855C21.942 27.6233 22.6172 27.339 22.8764 26.1966Z"/>
</mask>
<path fill-rule="evenodd" clip-rule="evenodd" d="M5 0C2.23858 0 0 2.23858 0 5V29C0 31.7614 2.23858 34 5 34H29C31.7614 34 34 31.7614 34 29V5C34 2.23858 31.7614 0 29 0H5ZM22.8764 26.1966L26.3092 10.0075C26.6139 8.57996 25.7965 8.02258 24.8622 8.37277L4.6821 16.1476C3.30572 16.6863 3.32603 17.4581 4.4481 17.8083L7.40357 18.7336C8.80186 19.1714 10.3218 18.9738 11.5617 18.193L21.5918 11.8771C22.1549 11.5009 22.6684 11.7097 22.2467 12.0851L13.6337 19.8679C12.9401 20.4946 12.516 21.3654 12.4502 22.2979L12.2619 24.9635C12.2158 25.6164 12.7652 26.1215 13.228 25.6587C14.6858 24.2562 16.9421 24.1082 18.5707 25.3083L20.9825 27.0855C21.942 27.6233 22.6172 27.339 22.8764 26.1966Z" fill="url(#paint0_linear_171_703)" fill-opacity="0.55"/>
<path d="M26.3092 10.0075L25.3312 9.79879L25.331 9.80009L26.3092 10.0075ZM22.8764 26.1966L23.8516 26.4178L23.8532 26.4109L23.8547 26.404L22.8764 26.1966ZM24.8622 8.37277L24.5112 7.43634L24.5026 7.43963L24.8622 8.37277ZM4.6821 16.1476L4.32258 15.2144L4.31763 15.2164L4.6821 16.1476ZM4.4481 17.8083L4.74687 16.854L4.74602 16.8537L4.4481 17.8083ZM21.5918 11.8771L22.1247 12.7233L22.1361 12.7161L22.1474 12.7086L21.5918 11.8771ZM22.2467 12.0851L21.5818 11.3381L21.5763 11.3431L22.2467 12.0851ZM20.9825 27.0855L20.3893 27.8905L20.4393 27.9274L20.4935 27.9578L20.9825 27.0855ZM18.5707 25.3083L17.9775 26.1133L18.5707 25.3083ZM12.2619 24.9635L11.2644 24.893L12.2619 24.9635ZM12.4502 22.2979L11.4526 22.2274L12.4502 22.2979ZM7.40357 18.7336L7.1048 19.6879L7.40357 18.7336ZM11.5617 18.193L12.0945 19.0392L11.5617 18.193ZM1 5C1 2.79086 2.79086 1 5 1V-1C1.68629 -1 -1 1.68629 -1 5H1ZM1 29V5H-1V29H1ZM5 33C2.79086 33 1 31.2091 1 29H-1C-1 32.3137 1.68629 35 5 35V33ZM29 33H5V35H29V33ZM33 29C33 31.2091 31.2091 33 29 33V35C32.3137 35 35 32.3137 35 29H33ZM33 5V29H35V5H33ZM29 1C31.2091 1 33 2.79086 33 5H35C35 1.68629 32.3137 -1 29 -1V1ZM5 1H29V-1H5V1ZM25.331 9.80009L21.8982 25.9892L23.8547 26.404L27.2875 10.215L25.331 9.80009ZM25.2131 9.30917C25.3236 9.26776 25.3863 9.27013 25.4017 9.27205C25.4103 9.27312 25.3835 9.26972 25.3548 9.24198C25.2884 9.17768 25.4473 9.25518 25.3312 9.79879L27.2872 10.2163C27.4759 9.3323 27.3784 8.41733 26.7459 7.805C26.0991 7.1789 25.2122 7.17366 24.5112 7.43638L25.2131 9.30917ZM5.04161 17.0807L25.2217 9.30591L24.5026 7.43963L4.32258 15.2144L5.04161 17.0807ZM4.74602 16.8537C4.65391 16.825 4.58921 16.7968 4.5471 16.7746C4.50412 16.7518 4.4942 16.7403 4.503 16.7486C4.51226 16.7573 4.54871 16.7943 4.58053 16.8662C4.61444 16.9428 4.63304 17.0372 4.62435 17.1362C4.60728 17.3305 4.50547 17.3907 4.5686 17.335C4.62644 17.284 4.76897 17.1874 5.04656 17.0788L4.31763 15.2164C3.90703 15.3771 3.53596 15.579 3.24557 15.8352C2.96047 16.0866 2.6758 16.4627 2.63202 16.9611C2.5854 17.4919 2.83105 17.9215 3.13247 18.2052C3.41916 18.4749 3.78524 18.649 4.15017 18.7629L4.74602 16.8537ZM7.70234 17.7793L4.74687 16.854L4.14932 18.7627L7.1048 19.6879L7.70234 17.7793ZM21.059 11.0309L11.0288 17.3468L12.0945 19.0392L22.1247 12.7233L21.059 11.0309ZM22.9116 12.832C23.0827 12.6798 23.3838 12.358 23.4008 11.8768C23.4233 11.2437 22.9694 10.8804 22.6246 10.7574C22.3125 10.6461 22.0014 10.6702 21.7692 10.723C21.5183 10.7801 21.2687 10.8903 21.0363 11.0456L22.1474 12.7086C22.1965 12.6757 22.2223 12.671 22.2128 12.6732C22.2078 12.6743 22.186 12.6789 22.1484 12.6786C22.1136 12.6782 22.0433 12.6735 21.9526 12.6411C21.8632 12.6092 21.7202 12.5376 21.5961 12.3844C21.4612 12.2178 21.3949 12.0098 21.4021 11.8058C21.4087 11.6197 21.4736 11.4897 21.5115 11.4281C21.5319 11.3951 21.5503 11.3722 21.5619 11.3589C21.5736 11.3455 21.5811 11.3388 21.5818 11.3382L22.9116 12.832ZM14.3041 20.6099L22.9172 12.827L21.5763 11.3431L12.9633 19.126L14.3041 20.6099ZM13.2594 25.0339L13.4477 22.3683L11.4526 22.2274L11.2644 24.893L13.2594 25.0339ZM21.5757 26.2804L19.1639 24.5032L17.9775 26.1133L20.3893 27.8905L21.5757 26.2804ZM21.9012 25.9753C21.8538 26.1842 21.799 26.2991 21.7643 26.3532C21.7338 26.4007 21.7325 26.3816 21.7767 26.3615C21.8217 26.3409 21.8414 26.3523 21.7989 26.3458C21.7476 26.3379 21.6403 26.3078 21.4714 26.2132L20.4935 27.9578C21.0906 28.2924 21.8616 28.5214 22.6075 28.1808C23.347 27.843 23.6942 27.1119 23.8516 26.4178L21.9012 25.9753ZM13.9213 26.3794C15.0281 25.3146 16.7411 25.2023 17.9775 26.1133L19.1639 24.5032C17.1432 23.0142 14.3436 23.1979 12.5347 24.938L13.9213 26.3794ZM11.2644 24.893C11.2223 25.4896 11.4414 26.1238 11.9332 26.5133C12.1904 26.7171 12.5395 26.861 12.9401 26.835C13.3431 26.8089 13.6824 26.6185 13.9351 26.3658L12.5209 24.9516C12.5422 24.9303 12.6392 24.8504 12.8105 24.8392C12.9793 24.8283 13.1072 24.8919 13.175 24.9456C13.2879 25.0351 13.2554 25.0903 13.2594 25.0339L11.2644 24.893ZM12.9633 19.126C12.078 19.9259 11.5367 21.0373 11.4526 22.2274L13.4477 22.3683C13.4953 21.6935 13.8022 21.0634 14.3041 20.6099L12.9633 19.126ZM7.1048 19.6879C8.78275 20.2133 10.6067 19.9761 12.0945 19.0392L11.0288 17.3468C10.0369 17.9714 8.82098 18.1295 7.70234 17.7793L7.1048 19.6879Z" fill="white" fill-opacity="0.1" mask="url(#path-1-inside-1_171_703)"/>
</g>
<defs>
<filter id="filter0_b_171_703" x="-21.3" y="-21.3" width="76.6" height="76.6" filterUnits="userSpaceOnUse" color-interpolation-filters="sRGB">
<feFlood flood-opacity="0" result="BackgroundImageFix"/>
<feGaussianBlur in="BackgroundImageFix" stdDeviation="10.65"/>
<feComposite in2="SourceAlpha" operator="in" result="effect1_backgroundBlur_171_703"/>
<feBlend mode="normal" in="SourceGraphic" in2="effect1_backgroundBlur_171_703" result="shape"/>
</filter>
<linearGradient id="paint0_linear_171_703" x1="0" y1="17" x2="34" y2="17" gradientUnits="userSpaceOnUse">
<stop stop-color="#A1BFBF"/>
<stop offset="1" stop-color="#97BBF0"/>
</linearGradient>
</defs>
</svg>
