<svg width="34" height="34" viewBox="0 0 34 34" fill="none" xmlns="http://www.w3.org/2000/svg">
<g filter="url(#filter0_b_171_707)">
<mask id="path-1-inside-1_171_707" fill="white">
<path fill-rule="evenodd" clip-rule="evenodd" d="M5 0C2.23858 0 0 2.23858 0 5V29C0 31.7614 2.23858 34 5 34H29C31.7614 34 34 31.7614 34 29V5C34 2.23858 31.7614 0 29 0H5ZM18.0626 16.7489C18.0847 17.1459 18.1129 17.655 18.4881 17.7966C18.4882 17.7966 18.4883 17.7965 18.4882 17.7964C18.4881 17.7963 18.4882 17.7961 18.4884 17.7962C18.7407 17.8869 19.1576 17.3792 19.4232 17.0555C19.4519 17.0206 19.4787 16.9879 19.5034 16.9583C20.2144 16.0694 20.9001 14.8767 21.4079 13.7083C21.4286 13.6624 21.449 13.6164 21.4694 13.5703C21.6752 13.1057 21.883 12.6369 22.322 12.3368C22.5219 12.1772 23.3801 12.1901 24.2314 12.203C24.4633 12.2065 24.6948 12.21 24.9123 12.21C25.0533 12.21 25.2098 12.2052 25.3731 12.2001C26.1211 12.1768 27.0104 12.1491 27.1978 12.5659C27.3984 13.0177 26.8803 13.9393 26.6475 14.3535L26.6388 14.3688C26.1654 15.168 25.6661 15.8204 25.1559 16.4869C24.7905 16.9643 24.4195 17.4489 24.0486 17.9999C24.02 18.0392 23.991 18.078 23.9622 18.1164C23.7863 18.3512 23.6207 18.5722 23.6423 18.8124C23.6423 19.2123 24.0125 19.5736 24.3605 19.9132C24.4098 19.9613 24.4587 20.009 24.506 20.0563C24.7238 20.2741 24.9092 20.4547 25.0769 20.6181C25.5746 21.1029 25.9169 21.4363 26.4869 22.1388C26.7916 22.5198 27.3002 23.1796 27.249 23.637C27.1726 24.2212 26.4617 24.4243 25.4713 24.4495C25.3531 24.4545 25.2341 24.4599 25.115 24.4654C24.0056 24.5161 22.8761 24.5678 22.1197 24.2464C21.6481 24.0496 21.2373 23.6099 20.8519 23.1974C20.7394 23.077 20.629 22.9588 20.5199 22.8497C20.3168 22.5954 20.0885 22.3671 19.809 22.0877L19.8089 22.0876C19.7623 22.0409 19.7165 21.9909 19.6703 21.9404C19.4649 21.7158 19.2518 21.4828 18.9201 21.5034C18.4374 21.5286 18.3107 22.0364 18.2091 22.5442C18.1716 22.7317 18.1549 22.9434 18.1384 23.1513C18.1102 23.5064 18.083 23.8503 17.9548 24.0425C17.3706 24.8298 14.4765 24.2456 13.8159 24.0425C11.48 23.3063 10.2873 21.9097 9.01732 20.1579C7.64582 18.2794 6.52864 16.2985 5.48782 14.039C5.44842 13.9551 5.40232 13.8684 5.35491 13.7793C5.15789 13.4088 4.93815 12.9955 5.08157 12.5659C5.26907 12.1696 6.09052 12.1672 6.82824 12.1651C6.98885 12.1646 7.14549 12.1642 7.29076 12.1597C8.17964 12.1345 9.0937 12.1597 9.60151 12.5155C9.84432 12.6836 9.97752 13.0444 10.122 13.4358C10.1738 13.5761 10.227 13.7204 10.2873 13.861C10.7447 14.8767 11.3541 15.9183 11.9634 16.756C11.9957 16.8017 12.0283 16.8491 12.0614 16.8973C12.3409 17.3043 12.6599 17.7689 13.1822 17.7464C13.5624 17.696 13.7152 16.4513 13.7152 15.512C13.7152 14.6995 13.7152 13.7099 13.4105 13.2525C13.2712 13.0368 13.0112 12.9416 12.7859 12.859C12.5604 12.7764 12.3697 12.7065 12.3697 12.5415C12.3697 12.3132 12.6744 12.0597 12.9791 11.907C13.2838 11.7542 13.7152 11.6787 14.0711 11.6275C15.3402 11.5511 17.4226 11.4999 17.8541 12.0589C18.2495 12.6684 18.1745 13.8126 18.1008 14.9364C18.061 15.5444 18.0215 16.1464 18.0572 16.6544C18.0591 16.685 18.0608 16.7166 18.0626 16.7489Z"/>
</mask>
<path fill-rule="evenodd" clip-rule="evenodd" d="M5 0C2.23858 0 0 2.23858 0 5V29C0 31.7614 2.23858 34 5 34H29C31.7614 34 34 31.7614 34 29V5C34 2.23858 31.7614 0 29 0H5ZM18.0626 16.7489C18.0847 17.1459 18.1129 17.655 18.4881 17.7966C18.4882 17.7966 18.4883 17.7965 18.4882 17.7964C18.4881 17.7963 18.4882 17.7961 18.4884 17.7962C18.7407 17.8869 19.1576 17.3792 19.4232 17.0555C19.4519 17.0206 19.4787 16.9879 19.5034 16.9583C20.2144 16.0694 20.9001 14.8767 21.4079 13.7083C21.4286 13.6624 21.449 13.6164 21.4694 13.5703C21.6752 13.1057 21.883 12.6369 22.322 12.3368C22.5219 12.1772 23.3801 12.1901 24.2314 12.203C24.4633 12.2065 24.6948 12.21 24.9123 12.21C25.0533 12.21 25.2098 12.2052 25.3731 12.2001C26.1211 12.1768 27.0104 12.1491 27.1978 12.5659C27.3984 13.0177 26.8803 13.9393 26.6475 14.3535L26.6388 14.3688C26.1654 15.168 25.6661 15.8204 25.1559 16.4869C24.7905 16.9643 24.4195 17.4489 24.0486 17.9999C24.02 18.0392 23.991 18.078 23.9622 18.1164C23.7863 18.3512 23.6207 18.5722 23.6423 18.8124C23.6423 19.2123 24.0125 19.5736 24.3605 19.9132C24.4098 19.9613 24.4587 20.009 24.506 20.0563C24.7238 20.2741 24.9092 20.4547 25.0769 20.6181C25.5746 21.1029 25.9169 21.4363 26.4869 22.1388C26.7916 22.5198 27.3002 23.1796 27.249 23.637C27.1726 24.2212 26.4617 24.4243 25.4713 24.4495C25.3531 24.4545 25.2341 24.4599 25.115 24.4654C24.0056 24.5161 22.8761 24.5678 22.1197 24.2464C21.6481 24.0496 21.2373 23.6099 20.8519 23.1974C20.7394 23.077 20.629 22.9588 20.5199 22.8497C20.3168 22.5954 20.0885 22.3671 19.809 22.0877L19.8089 22.0876C19.7623 22.0409 19.7165 21.9909 19.6703 21.9404C19.4649 21.7158 19.2518 21.4828 18.9201 21.5034C18.4374 21.5286 18.3107 22.0364 18.2091 22.5442C18.1716 22.7317 18.1549 22.9434 18.1384 23.1513C18.1102 23.5064 18.083 23.8503 17.9548 24.0425C17.3706 24.8298 14.4765 24.2456 13.8159 24.0425C11.48 23.3063 10.2873 21.9097 9.01732 20.1579C7.64582 18.2794 6.52864 16.2985 5.48782 14.039C5.44842 13.9551 5.40232 13.8684 5.35491 13.7793C5.15789 13.4088 4.93815 12.9955 5.08157 12.5659C5.26907 12.1696 6.09052 12.1672 6.82824 12.1651C6.98885 12.1646 7.14549 12.1642 7.29076 12.1597C8.17964 12.1345 9.0937 12.1597 9.60151 12.5155C9.84432 12.6836 9.97752 13.0444 10.122 13.4358C10.1738 13.5761 10.227 13.7204 10.2873 13.861C10.7447 14.8767 11.3541 15.9183 11.9634 16.756C11.9957 16.8017 12.0283 16.8491 12.0614 16.8973C12.3409 17.3043 12.6599 17.7689 13.1822 17.7464C13.5624 17.696 13.7152 16.4513 13.7152 15.512C13.7152 14.6995 13.7152 13.7099 13.4105 13.2525C13.2712 13.0368 13.0112 12.9416 12.7859 12.859C12.5604 12.7764 12.3697 12.7065 12.3697 12.5415C12.3697 12.3132 12.6744 12.0597 12.9791 11.907C13.2838 11.7542 13.7152 11.6787 14.0711 11.6275C15.3402 11.5511 17.4226 11.4999 17.8541 12.0589C18.2495 12.6684 18.1745 13.8126 18.1008 14.9364C18.061 15.5444 18.0215 16.1464 18.0572 16.6544C18.0591 16.685 18.0608 16.7166 18.0626 16.7489Z" fill="url(#paint0_linear_171_707)" fill-opacity="0.55"/>
<path d="M18.0626 16.7489L17.0642 16.8043V16.8043L18.0626 16.7489ZM19.4232 17.0555L20.1962 17.69L20.1962 17.69L19.4232 17.0555ZM19.5034 16.9583L20.2712 17.5991L20.2779 17.5911L20.2844 17.5829L19.5034 16.9583ZM21.4079 13.7083L20.4958 13.2982L20.4908 13.3097L21.4079 13.7083ZM21.4694 13.5703L20.5551 13.1652L20.5551 13.1652L21.4694 13.5703ZM22.322 12.3368L22.8863 13.1624L22.917 13.1414L22.9461 13.1181L22.322 12.3368ZM24.2314 12.203L24.2162 13.2029H24.2162L24.2314 12.203ZM25.3731 12.2001L25.342 11.2006H25.342L25.3731 12.2001ZM27.1978 12.5659L28.1118 12.1601L28.1099 12.1558L27.1978 12.5659ZM26.6475 14.3535L25.7758 13.8634L25.7758 13.8634L26.6475 14.3535ZM26.6388 14.3688L27.4992 14.8785L27.505 14.8688L27.5105 14.8589L26.6388 14.3688ZM25.1559 16.4869L25.95 17.0947L25.1559 16.4869ZM24.0486 17.9999L24.8575 18.5878L24.8681 18.5733L24.8781 18.5584L24.0486 17.9999ZM23.9622 18.1164L24.7625 18.716L24.7625 18.716L23.9622 18.1164ZM23.6423 18.8124H24.6423V18.7674L24.6383 18.7227L23.6423 18.8124ZM24.3605 19.9132L25.0589 19.1975L25.0589 19.1975L24.3605 19.9132ZM25.0769 20.6181L24.3792 21.3344L24.3792 21.3344L25.0769 20.6181ZM26.4869 22.1388L27.2679 21.5143L27.2634 21.5087L26.4869 22.1388ZM27.249 23.637L28.2406 23.7667L28.2418 23.7575L28.2428 23.7482L27.249 23.637ZM25.4713 24.4495L25.4458 23.4499L25.4376 23.4501L25.4293 23.4504L25.4713 24.4495ZM25.115 24.4654L25.1607 25.4643H25.1607L25.115 24.4654ZM22.1197 24.2464L22.5107 23.326L22.5048 23.3235L22.1197 24.2464ZM20.8519 23.1974L20.1212 23.8801L20.1212 23.8801L20.8519 23.1974ZM20.5199 22.8497L19.7385 23.4738L19.7733 23.5174L19.8128 23.5568L20.5199 22.8497ZM19.809 22.0877L20.5161 21.3805L20.5161 21.3805L19.809 22.0877ZM19.6703 21.9404L18.9325 22.6153L18.9325 22.6153L19.6703 21.9404ZM18.9201 21.5034L18.9722 22.5021L18.982 22.5015L18.9201 21.5034ZM18.2091 22.5442L19.1897 22.7403L19.1897 22.7403L18.2091 22.5442ZM18.1384 23.1513L17.1415 23.0722V23.0723L18.1384 23.1513ZM17.9548 24.0425L18.7579 24.6383L18.7729 24.6181L18.7869 24.5972L17.9548 24.0425ZM13.8159 24.0425L13.5154 24.9963L13.522 24.9983L13.8159 24.0425ZM9.01732 20.1579L9.82696 19.571L9.82497 19.5682L9.01732 20.1579ZM5.48782 14.039L6.39612 13.6206L6.39287 13.6137L5.48782 14.039ZM5.35491 13.7793L6.23784 13.3098L6.23784 13.3098L5.35491 13.7793ZM5.08157 12.5659L4.17762 12.1383L4.152 12.1924L4.13303 12.2492L5.08157 12.5659ZM6.82824 12.1651L6.83112 13.1651H6.83113L6.82824 12.1651ZM7.29076 12.1597L7.26243 11.1601L7.25977 11.1601L7.29076 12.1597ZM9.60151 12.5155L9.0276 13.3345L9.0324 13.3378L9.60151 12.5155ZM10.122 13.4358L11.0601 13.0895L11.0601 13.0895L10.122 13.4358ZM10.2873 13.861L9.36804 14.2548L9.37168 14.2633L9.37547 14.2717L10.2873 13.861ZM11.9634 16.756L12.7804 16.1791L12.7721 16.1677L11.9634 16.756ZM12.0614 16.8973L11.237 17.4633L11.237 17.4633L12.0614 16.8973ZM13.1822 17.7464L13.2253 18.7455L13.2696 18.7436L13.3135 18.7377L13.1822 17.7464ZM13.4105 13.2525L12.5704 13.7951L12.5782 13.8068L13.4105 13.2525ZM12.7859 12.859L13.1299 11.9201L12.7859 12.859ZM14.0711 11.6275L14.011 10.6293L13.9697 10.6318L13.9287 10.6377L14.0711 11.6275ZM17.8541 12.0589L18.693 11.5146L18.6707 11.4803L18.6457 11.4479L17.8541 12.0589ZM18.1008 14.9364L17.103 14.871V14.871L18.1008 14.9364ZM18.0572 16.6544L19.0553 16.5925L19.0547 16.5844L18.0572 16.6544ZM18.4884 17.7962L18.1499 18.7371L18.4884 17.7962ZM18.4881 17.7966L18.8411 16.861L18.4881 17.7966ZM1 5C1 2.79086 2.79086 1 5 1V-1C1.68629 -1 -1 1.68629 -1 5H1ZM1 29V5H-1V29H1ZM5 33C2.79086 33 1 31.2091 1 29H-1C-1 32.3137 1.68629 35 5 35V33ZM29 33H5V35H29V33ZM33 29C33 31.2091 31.2091 33 29 33V35C32.3137 35 35 32.3137 35 29H33ZM33 5V29H35V5H33ZM29 1C31.2091 1 33 2.79086 33 5H35C35 1.68629 32.3137 -1 29 -1V1ZM5 1H29V-1H5V1ZM18.8411 16.861C18.8865 16.8781 18.9315 16.9029 18.9727 16.9346C19.0133 16.9658 19.0434 16.9985 19.0645 17.0264C19.1039 17.0786 19.1094 17.1107 19.103 17.0887C19.097 17.068 19.0879 17.0255 19.0797 16.9511C19.0715 16.8764 19.0668 16.7968 19.0611 16.6935L17.0642 16.8043C17.0738 16.977 17.0882 17.3235 17.1829 17.6483C17.2817 17.9875 17.5279 18.5031 18.1351 18.7322L18.8411 16.861ZM18.6503 16.421C18.5826 16.5034 18.5167 16.5837 18.4486 16.6614C18.3798 16.7398 18.3207 16.8019 18.2723 16.8466C18.2164 16.8983 18.2108 16.8929 18.2515 16.8723C18.2752 16.8602 18.3371 16.8316 18.4306 16.8165C18.5296 16.8005 18.6709 16.7991 18.8268 16.8552L18.1499 18.7371C18.5908 18.8957 18.973 18.7488 19.1556 18.6562C19.3537 18.5558 19.5163 18.4202 19.6293 18.3159C19.8584 18.1043 20.0733 17.8396 20.1962 17.69L18.6503 16.421ZM18.7357 16.3175C18.7079 16.3509 18.6782 16.387 18.6503 16.421L20.1962 17.69C20.2255 17.6543 20.2496 17.6249 20.2712 17.5991L18.7357 16.3175ZM20.4908 13.3097C20.01 14.4158 19.3668 15.5282 18.7225 16.3337L20.2844 17.5829C21.062 16.6107 21.7902 15.3375 22.3251 14.1069L20.4908 13.3097ZM20.5551 13.1652C20.5345 13.2117 20.5152 13.2553 20.4959 13.2982L22.32 14.1183C22.3419 14.0696 22.3634 14.0211 22.3837 13.9753L20.5551 13.1652ZM21.7577 11.5112C21.0466 11.9973 20.741 12.7457 20.5551 13.1652L22.3837 13.9754C22.6094 13.4658 22.7194 13.2765 22.8863 13.1624L21.7577 11.5112ZM24.2465 11.2031C23.8302 11.1968 23.3703 11.1895 22.9888 11.2062C22.7987 11.2145 22.5977 11.2297 22.4149 11.2613C22.2845 11.2838 21.9646 11.3424 21.6979 11.5554L22.9461 13.1181C22.8435 13.2001 22.7568 13.2286 22.7455 13.2324C22.7254 13.2392 22.725 13.2373 22.755 13.2322C22.8159 13.2217 22.9201 13.2111 23.076 13.2043C23.3863 13.1907 23.7812 13.1963 24.2162 13.2029L24.2465 11.2031ZM24.9123 11.21C24.7037 11.21 24.4801 11.2067 24.2465 11.2031L24.2162 13.2029C24.4466 13.2064 24.6858 13.21 24.9123 13.21V11.21ZM25.342 11.2006C25.1747 11.2058 25.0347 11.21 24.9123 11.21V13.21C25.0719 13.21 25.2449 13.2045 25.4042 13.1996L25.342 11.2006ZM28.1099 12.1558C27.9318 11.7598 27.6141 11.5391 27.3556 11.4206C27.1028 11.3047 26.8374 11.2528 26.6193 11.2256C26.1875 11.1718 25.6942 11.1896 25.342 11.2006L25.4042 13.1996C25.8001 13.1873 26.1254 13.1795 26.3721 13.2103C26.4932 13.2254 26.5321 13.2432 26.5221 13.2386C26.5064 13.2315 26.3701 13.1636 26.2858 12.976L28.1099 12.1558ZM27.5192 14.8435C27.6321 14.6427 27.8532 14.2521 28.0154 13.8407C28.0967 13.6347 28.178 13.3874 28.2176 13.1293C28.255 12.8859 28.2729 12.523 28.1118 12.1601L26.2839 12.9717C26.223 12.8347 26.2514 12.7564 26.2408 12.8259C26.2324 12.8805 26.2072 12.9743 26.1549 13.1069C26.05 13.3728 25.8957 13.6501 25.7758 13.8634L27.5192 14.8435ZM27.5105 14.8589L27.5192 14.8435L25.7758 13.8634L25.7671 13.8788L27.5105 14.8589ZM25.95 17.0947C26.4572 16.432 26.9914 15.7356 27.4992 14.8785L25.7785 13.8592C25.3394 14.6003 24.8749 15.2088 24.3618 15.8791L25.95 17.0947ZM24.8781 18.5584C25.2297 18.0362 25.5827 17.5745 25.95 17.0947L24.3618 15.8791C23.9982 16.3541 23.6094 16.8616 23.219 17.4414L24.8781 18.5584ZM24.7625 18.716C24.7905 18.6785 24.824 18.634 24.8575 18.5878L23.2396 17.412C23.2161 17.4445 23.1914 17.4775 23.1619 17.5168L24.7625 18.716ZM24.6383 18.7227C24.6513 18.8673 24.6008 18.9513 24.612 18.9302C24.6168 18.9211 24.6292 18.8999 24.6563 18.8608C24.6842 18.8207 24.7164 18.7775 24.7625 18.716L23.1619 17.5168C23.0855 17.6188 22.9486 17.7976 22.8444 17.9945C22.7342 18.2027 22.6117 18.5173 22.6464 18.9022L24.6383 18.7227ZM25.0589 19.1975C24.8717 19.0148 24.7531 18.8958 24.6731 18.7883C24.5921 18.6796 24.6423 18.7004 24.6423 18.8124H22.6423C22.6423 19.3244 22.8776 19.7257 23.0688 19.9825C23.2608 20.2405 23.5013 20.4719 23.662 20.6288L25.0589 19.1975ZM25.2131 19.3492C25.1607 19.2969 25.1074 19.2448 25.0589 19.1975L23.662 20.6288C23.7122 20.6778 23.7566 20.7212 23.7989 20.7635L25.2131 19.3492ZM25.7747 19.9018C25.6069 19.7383 25.4257 19.5618 25.2131 19.3492L23.7989 20.7635C24.0218 20.9863 24.2114 21.1711 24.3792 21.3344L25.7747 19.9018ZM27.2634 21.5087C26.6566 20.7609 26.2816 20.3955 25.7747 19.9018L24.3792 21.3344C24.8676 21.8103 25.1772 22.1118 25.7104 22.7689L27.2634 21.5087ZM28.2428 23.7482C28.3078 23.1678 28.0314 22.6377 27.8631 22.3518C27.6647 22.0149 27.4213 21.7061 27.2679 21.5143L25.7059 22.7633C25.8571 22.9525 26.0204 23.1641 26.1397 23.3667C26.1986 23.4667 26.2322 23.5405 26.2483 23.5875C26.2666 23.6409 26.2457 23.6111 26.2552 23.5258L28.2428 23.7482ZM25.4967 25.4492C26.028 25.4357 26.5994 25.3752 27.0808 25.1788C27.5963 24.9684 28.1402 24.5341 28.2406 23.7667L26.2574 23.5074C26.2651 23.4486 26.2957 23.3809 26.3402 23.3322C26.3747 23.2945 26.3866 23.3019 26.3251 23.327C26.1842 23.3845 25.9049 23.4382 25.4458 23.4499L25.4967 25.4492ZM25.1607 25.4643C25.2801 25.4589 25.3972 25.4535 25.5132 25.4487L25.4293 23.4504C25.3089 23.4555 25.1881 23.461 25.0693 23.4664L25.1607 25.4643ZM21.7287 25.1668C22.2723 25.3977 22.8861 25.472 23.4445 25.4946C24.0112 25.5176 24.6157 25.4893 25.1607 25.4643L25.0693 23.4664C24.5049 23.4922 23.99 23.5151 23.5255 23.4963C23.0527 23.4771 22.7235 23.4164 22.5107 23.326L21.7287 25.1668ZM20.1212 23.8801C20.4635 24.2465 21.0244 24.8729 21.7346 25.1693L22.5048 23.3235C22.2717 23.2263 22.011 22.9733 21.5826 22.5147L20.1212 23.8801ZM19.8128 23.5568C19.9077 23.6518 20.0063 23.7571 20.1212 23.8801L21.5826 22.5147C21.4725 22.3968 21.3503 22.2659 21.227 22.1426L19.8128 23.5568ZM19.1019 22.7948C19.3899 23.0827 19.5766 23.271 19.7385 23.4738L21.3012 22.2256C21.057 21.9198 20.7871 21.6515 20.5161 21.3805L19.1019 22.7948ZM19.1018 22.7947L19.1019 22.7948L20.5161 21.3805L20.5161 21.3805L19.1018 22.7947ZM18.9325 22.6153C18.9758 22.6627 19.0367 22.7296 19.1018 22.7947L20.5161 21.3805C20.4879 21.3523 20.4572 21.319 20.4082 21.2654L18.9325 22.6153ZM18.982 22.5015C18.9375 22.5042 18.8883 22.4982 18.8422 22.4834C18.7992 22.4696 18.7749 22.4533 18.7716 22.4509C18.77 22.4498 18.7821 22.4582 18.8122 22.4878C18.844 22.519 18.8779 22.5557 18.9325 22.6153L20.4082 21.2654C20.2719 21.1165 19.7419 20.4505 18.8582 20.5053L18.982 22.5015ZM19.1897 22.7403C19.2144 22.6171 19.2351 22.5222 19.2576 22.4426C19.2804 22.3616 19.297 22.3265 19.3013 22.3186C19.3045 22.3127 19.2796 22.3619 19.2074 22.4143C19.1707 22.441 19.1283 22.4635 19.0828 22.4793C19.0376 22.495 18.9991 22.5006 18.9722 22.502L18.868 20.5048C18.1856 20.5404 17.763 20.9588 17.5421 21.3671C17.3551 21.7129 17.2755 22.1134 17.2286 22.3481L19.1897 22.7403ZM19.1352 23.2303C19.1529 23.0082 19.166 22.8587 19.1897 22.7403L17.2286 22.3481C17.1772 22.6047 17.1568 22.8787 17.1415 23.0722L19.1352 23.2303ZM18.7869 24.5972C18.9703 24.3221 19.0371 24.0182 19.0698 23.8262C19.1052 23.6189 19.1221 23.3965 19.1352 23.2303L17.1415 23.0723C17.1265 23.2613 17.1157 23.3883 17.0983 23.4897C17.0903 23.5366 17.084 23.5587 17.0824 23.5637C17.0803 23.57 17.0896 23.5375 17.1228 23.4878L18.7869 24.5972ZM13.522 24.9983C13.9243 25.122 14.884 25.3318 15.8312 25.4104C16.305 25.4498 16.8272 25.4611 17.2981 25.3928C17.7112 25.3329 18.3591 25.1758 18.7579 24.6383L17.1518 23.4466C17.2584 23.3028 17.3255 23.3679 17.011 23.4135C16.7543 23.4508 16.4022 23.451 15.9968 23.4173C15.1858 23.35 14.3682 23.1661 14.1099 23.0866L13.522 24.9983ZM8.20769 20.7448C9.51087 22.5424 10.8631 24.1604 13.5154 24.9962L14.1165 23.0887C12.0969 22.4523 11.0637 21.2769 9.82695 19.571L8.20769 20.7448ZM4.57955 14.4573C5.64206 16.764 6.79131 18.8049 8.20968 20.7476L9.82497 19.5682C8.50034 17.7539 7.41521 15.8331 6.3961 13.6206L4.57955 14.4573ZM4.47197 14.2488C4.52191 14.3427 4.5558 14.4069 4.58277 14.4643L6.39287 13.6137C6.34103 13.5034 6.28273 13.3942 6.23784 13.3098L4.47197 14.2488ZM4.13303 12.2492C3.83032 13.156 4.32423 13.9709 4.47197 14.2488L6.23784 13.3098C6.1868 13.2138 6.14741 13.1393 6.11317 13.0668C6.07973 12.996 6.05949 12.944 6.04757 12.9046C6.02538 12.8314 6.04342 12.8427 6.03011 12.8826L4.13303 12.2492ZM6.82536 11.1651C6.47868 11.1661 6.00555 11.1651 5.59347 11.2298C5.38427 11.2626 5.13209 11.3203 4.89181 11.4374C4.64625 11.5571 4.35177 11.7701 4.17762 12.1383L5.98553 12.9935C5.90512 13.1635 5.78363 13.2277 5.76788 13.2353C5.75741 13.2404 5.79186 13.2231 5.90367 13.2056C6.13363 13.1695 6.44009 13.1662 6.83112 13.1651L6.82536 11.1651ZM7.25977 11.1601C7.13117 11.1641 6.98918 11.1646 6.82536 11.1651L6.83113 13.1651C6.98853 13.1646 7.15981 13.1642 7.32175 13.1592L7.25977 11.1601ZM10.1754 11.6966C9.71894 11.3767 9.16642 11.256 8.70638 11.2016C8.22777 11.145 7.7171 11.1472 7.26243 11.1601L7.31909 13.1593C7.7533 13.147 8.14409 13.1491 8.47168 13.1878C8.81785 13.2287 8.97627 13.2985 9.02761 13.3345L10.1754 11.6966ZM11.0601 13.0895C10.9932 12.9082 10.9032 12.6606 10.7894 12.4374C10.6768 12.2168 10.4903 11.9145 10.1706 11.6933L9.0324 13.3378C8.95551 13.2846 8.95701 13.2467 9.00787 13.3464C9.05744 13.4436 9.10631 13.572 9.18383 13.7821L11.0601 13.0895ZM11.2065 13.4673C11.158 13.354 11.1133 13.2338 11.0601 13.0895L9.18383 13.7821C9.23418 13.9185 9.29605 14.0867 9.36804 14.2548L11.2065 13.4673ZM12.7721 16.1677C12.2031 15.3855 11.6283 14.4034 11.199 13.4504L9.37547 14.2717C9.86109 15.3499 10.505 16.451 11.1548 17.3442L12.7721 16.1677ZM12.8858 16.3312C12.8534 16.2841 12.817 16.2311 12.7803 16.1791L11.1466 17.3328C11.1744 17.3722 11.2032 17.4141 11.237 17.4633L12.8858 16.3312ZM13.1391 16.7473C13.168 16.7461 13.2005 16.7529 13.2241 16.7631C13.242 16.7709 13.2356 16.7723 13.2047 16.7442C13.173 16.7153 13.1302 16.6687 13.0732 16.5946C13.0153 16.5194 12.9582 16.4367 12.8858 16.3312L11.237 17.4633C11.3626 17.6462 11.5762 17.9657 11.8567 18.2217C12.162 18.5002 12.6185 18.7716 13.2253 18.7455L13.1391 16.7473ZM12.7152 15.512C12.7152 15.9404 12.6795 16.4176 12.6102 16.7692C12.5741 16.952 12.5398 17.0438 12.5278 17.0684C12.5222 17.0798 12.5425 17.0322 12.6061 16.9684C12.6747 16.8996 12.8227 16.7853 13.0509 16.7551L13.3135 18.7377C13.947 18.6538 14.2337 18.1323 14.324 17.9479C14.4476 17.6955 14.5227 17.408 14.5724 17.1559C14.6746 16.6377 14.7152 16.0229 14.7152 15.512H12.7152ZM12.5782 13.8068C12.568 13.7915 12.5894 13.8194 12.6171 13.9289C12.6431 14.0321 12.6653 14.1695 12.6815 14.3425C12.7144 14.6935 12.7152 15.0956 12.7152 15.512H14.7152C14.7152 15.1159 14.716 14.617 14.6727 14.1557C14.6334 13.7361 14.5448 13.1515 14.2428 12.6981L12.5782 13.8068ZM12.4419 13.798C12.5009 13.8196 12.5415 13.8346 12.5792 13.8501C12.6154 13.8649 12.6359 13.8751 12.6469 13.8812C12.671 13.8945 12.6205 13.8725 12.5705 13.7951L14.2505 12.7099C13.8973 12.1631 13.2799 11.975 13.1299 11.9201L12.4419 13.798ZM11.3697 12.5415C11.3697 13.1061 11.7345 13.4332 11.9552 13.5741C12.1428 13.6939 12.3642 13.7695 12.4419 13.798L13.1299 11.9201C13.0687 11.8976 13.0366 11.8857 13.0117 11.8752C12.9862 11.8646 13.0002 11.8684 13.0313 11.8882C13.0614 11.9075 13.1469 11.9663 13.2263 12.0816C13.3162 12.2119 13.3697 12.3734 13.3697 12.5415H11.3697ZM12.5309 11.013C12.3104 11.1236 12.0675 11.2803 11.8633 11.4787C11.6968 11.6405 11.3697 12.0088 11.3697 12.5415H13.3697C13.3697 12.7073 13.3153 12.8199 13.2901 12.8641C13.2642 12.9093 13.2457 12.9241 13.257 12.9131C13.2658 12.9045 13.2863 12.8868 13.3196 12.864C13.3522 12.8418 13.3894 12.8199 13.4272 12.8009L12.5309 11.013ZM13.9287 10.6377C13.5894 10.6865 13.0012 10.7773 12.5309 11.013L13.4272 12.8009C13.5664 12.7312 13.841 12.6708 14.2134 12.6173L13.9287 10.6377ZM18.6457 11.4479C18.3243 11.0315 17.8308 10.8613 17.5141 10.7779C17.1497 10.6819 16.7374 10.6327 16.3414 10.607C15.5441 10.5553 14.6558 10.5905 14.011 10.6293L14.1311 12.6257C14.7554 12.5881 15.543 12.5595 16.212 12.6028C16.5492 12.6247 16.8177 12.6627 17.0048 12.712C17.2395 12.7738 17.1681 12.8069 17.0624 12.6699L18.6457 11.4479ZM19.0987 15.0018C19.1346 14.4537 19.1767 13.8294 19.1525 13.2621C19.1293 12.721 19.0432 12.0544 18.693 11.5146L17.0152 12.6032C17.0604 12.6729 17.1344 12.8831 17.1543 13.3475C17.173 13.7856 17.1407 14.2953 17.103 14.871L19.0987 15.0018ZM19.0547 16.5844C19.0248 16.158 19.0575 15.6298 19.0987 15.0018L17.103 14.871C17.0644 15.459 17.0183 16.1348 17.0597 16.7244L19.0547 16.5844ZM19.0611 16.6935C19.0593 16.6618 19.0574 16.6269 19.0553 16.5925L17.0591 16.7163C17.0608 16.7431 17.0623 16.7713 17.0642 16.8043L19.0611 16.6935ZM19.1962 17.0901C19.9881 17.8839 19.1032 19.08 18.1499 18.7371L18.8268 16.8552C17.8732 16.5122 16.9881 17.7086 17.7803 18.5026L19.1962 17.0901ZM18.1351 18.7322C18.6212 18.9156 19.083 18.6907 19.3075 18.37C19.5396 18.0384 19.5923 17.4871 19.1962 17.0901L17.7803 18.5026C17.3843 18.1057 17.437 17.5545 17.669 17.2231C17.8935 16.9024 18.3551 16.6776 18.8411 16.861L18.1351 18.7322Z" fill="white" fill-opacity="0.1" mask="url(#path-1-inside-1_171_707)"/>
</g>
<defs>
<filter id="filter0_b_171_707" x="-21.3" y="-21.3" width="76.6" height="76.6" filterUnits="userSpaceOnUse" color-interpolation-filters="sRGB">
<feFlood flood-opacity="0" result="BackgroundImageFix"/>
<feGaussianBlur in="BackgroundImageFix" stdDeviation="10.65"/>
<feComposite in2="SourceAlpha" operator="in" result="effect1_backgroundBlur_171_707"/>
<feBlend mode="normal" in="SourceGraphic" in2="effect1_backgroundBlur_171_707" result="shape"/>
</filter>
<linearGradient id="paint0_linear_171_707" x1="0" y1="17" x2="34" y2="17" gradientUnits="userSpaceOnUse">
<stop stop-color="#A1BFBF"/>
<stop offset="1" stop-color="#97BBF0"/>
</linearGradient>
</defs>
</svg>
